<?xml version="1.0" encoding="UTF-8"?>
<svg version="1.1" xmlns="http://www.w3.org/2000/svg" width="380" height="380">
<path d="M0 0 C1.98 0.99 1.98 0.99 4 2 C4 2.66 4 3.32 4 4 C4.66 4 5.32 4 6 4 C7.58129883 6.31298828 7.58129883 6.31298828 9.45703125 9.5703125 C9.79626114 10.15434341 10.13549103 10.73837433 10.48500061 11.34010315 C11.60092986 13.26457624 12.70653378 15.19478712 13.8125 17.125 C14.58332062 18.45726566 15.35497384 19.78904992 16.12744141 21.12036133 C17.68670711 23.80885376 19.24280167 26.49913914 20.79638672 29.19091797 C23.79140913 34.37485345 26.82846894 39.5337031 29.875 44.6875 C30.3913501 45.56486816 30.9077002 46.44223633 31.43969727 47.34619141 C33.97848469 51.64619959 36.55669622 55.91468717 39.2109375 60.14453125 C39.72285645 60.9641333 40.23477539 61.78373535 40.76220703 62.62817383 C41.7204304 64.1557649 42.68694224 65.67820378 43.66357422 67.1940918 C44.08912598 67.8725415 44.51467773 68.55099121 44.953125 69.25 C45.51241699 70.12398437 45.51241699 70.12398437 46.08300781 71.015625 C47.34119364 73.73834449 47.80092356 76.00229563 48 79 C46.97460938 81.67114258 46.97460938 81.67114258 45.34375 84.39453125 C44.43931152 85.93258423 44.43931152 85.93258423 43.51660156 87.50170898 C42.85112305 88.59427002 42.18564453 89.68683105 41.5 90.8125 C40.8133108 91.96665724 40.12811219 93.12170251 39.44433594 94.27758789 C37.66635484 97.27376651 35.86866701 100.25757278 34.06469727 103.23815918 C32.38321331 106.0206469 30.71572302 108.81148343 29.046875 111.6015625 C27.21762567 114.65778683 25.38630303 117.71246369 23.54101562 120.7590332 C17.89232263 130.0943518 12.44746611 139.54627356 7 149 C7.99114304 148.98889694 8.98228607 148.97779388 10.00346375 148.96635437 C19.34655573 148.86497181 28.68953604 148.79003157 38.0330534 148.74093914 C42.83664065 148.71485146 47.63978366 148.67946867 52.44311523 148.62280273 C57.07913894 148.56845318 61.71473552 148.53857323 66.35105324 148.52561378 C68.11932919 148.51637916 69.8875819 148.49834571 71.65567589 148.47134972 C74.13383766 148.43501889 76.61023757 148.43005613 79.08862305 148.43237305 C80.1837471 148.40540848 80.1837471 148.40540848 81.30099487 148.37789917 C85.19153201 148.41722372 86.82702154 148.85799511 89.87297058 151.35853577 C92.09366171 154.11631435 93.97390606 156.88140391 95.7890625 159.921875 C96.1269278 160.48388611 96.46479309 161.04589722 96.81289673 161.62493896 C97.88359729 163.41181532 98.9428345 165.20508807 100 167 C100.69106491 168.166025 101.38214554 169.33204069 102.07324219 170.49804688 C103.82452026 173.46168277 105.5638687 176.43214149 107.29870605 179.40542603 C108.40379219 181.29934462 109.5107449 183.19216154 110.61816406 185.0847168 C112.08232386 187.58720434 113.54590283 190.09002947 115.00878906 192.59326172 C117.58555351 197.00181628 120.16528185 201.40860448 122.75 205.8125 C123.11915527 206.44381836 123.48831055 207.07513672 123.86865234 207.72558594 C126.15609347 211.62176521 128.54510054 215.4326054 131.02514648 219.2097168 C132.29845767 221.5481067 132.40808073 223.3882833 132 226 C128.23955792 228.45275634 124.48852583 228.27588096 120.15795898 228.24291992 C119.37215454 228.24481827 118.5863501 228.24671661 117.7767334 228.24867249 C115.18308489 228.2523728 112.58971731 228.24168718 109.99609375 228.23046875 C108.19295789 228.22927647 106.38982141 228.22882389 104.58668518 228.2290802 C100.80978501 228.22751665 97.0329798 228.21923628 93.25610352 228.20581055 C88.41151343 228.18880877 83.56702758 228.18499665 78.72241116 228.18575573 C75.00013736 228.18548401 71.2778864 228.18000266 67.55562019 228.17275429 C65.76901485 228.16956942 63.98240691 228.16760064 62.19579887 228.16686058 C59.70136974 228.1646958 57.20705178 228.15594885 54.71264648 228.14526367 C53.60213676 228.14594345 53.60213676 228.14594345 52.4691925 228.14663696 C49.37253931 228.1272115 46.96148035 227.98716012 44 227 C42.48876953 224.84887695 42.48876953 224.84887695 40.8828125 221.98828125 C40.28251221 220.93141113 39.68221191 219.87454102 39.0637207 218.78564453 C38.42394287 217.63950684 37.78416504 216.49336914 37.125 215.3125 C36.11268938 213.52390063 35.09700578 211.73724256 34.08131409 209.95056152 C33.3913086 208.73608158 32.70238297 207.52098753 32.01451111 206.30529785 C28.84537255 200.70661659 25.59405824 195.15851942 22.3125 189.625 C21.79163818 188.74400635 21.27077637 187.8630127 20.73413086 186.95532227 C18.02097079 182.37488704 15.28418396 177.80973003 12.5234375 173.2578125 C11.96358154 172.33274902 11.40372559 171.40768555 10.8269043 170.45458984 C9.75693125 168.68941316 8.68304819 166.92659895 7.60473633 165.16650391 C7.13060303 164.38452637 6.65646973 163.60254883 6.16796875 162.796875 C5.74797607 162.10948242 5.3279834 161.42208984 4.89526367 160.71386719 C4 159 4 159 4 157 C-0.73603529 161.19550952 -3.47264345 165.92374911 -6.5 171.4375 C-7.56102814 173.33155444 -8.62357801 175.22475707 -9.6875 177.1171875 C-10.23277344 178.09010742 -10.77804688 179.06302734 -11.33984375 180.06542969 C-15.56224263 187.52914064 -19.98311501 194.87807095 -24.37109375 202.24511719 C-26.03661672 205.06192792 -27.67647772 207.89253099 -29.3125 210.7265625 C-30.37490178 212.54693233 -31.43739808 214.36724699 -32.5 216.1875 C-32.98017578 217.03127197 -33.46035156 217.87504395 -33.95507812 218.74438477 C-34.41333984 219.52354248 -34.87160156 220.3027002 -35.34375 221.10546875 C-35.73755859 221.78762451 -36.13136719 222.46978027 -36.53710938 223.17260742 C-38.48134638 225.60128132 -40.18686512 226.63366928 -43 228 C-45.69715311 228.2744548 -48.15598822 228.39071643 -50.84790039 228.35644531 C-52.0097863 228.35951187 -52.0097863 228.35951187 -53.19514465 228.36264038 C-55.74622489 228.36563957 -58.29665321 228.34719775 -60.84765625 228.328125 C-62.6245457 228.32506578 -64.40143754 228.3231909 -66.17832947 228.32244873 C-69.89803276 228.3178511 -73.6175189 228.30344547 -77.3371582 228.28125 C-82.10427738 228.25294762 -86.87122584 228.24203562 -91.63842106 228.2375679 C-95.30583908 228.2334106 -98.97322266 228.22359082 -102.64062309 228.21169281 C-104.39849002 228.20599764 -106.15636023 228.20123645 -107.91423225 228.19742584 C-110.37004529 228.19054834 -112.82572413 228.17690929 -115.28149414 228.16113281 C-116.00731689 228.16001495 -116.73313965 228.15889709 -117.48095703 228.15774536 C-120.7940676 228.12956813 -123.83132211 228.02295374 -127 227 C-127 226.34 -127 225.68 -127 225 C-127.99 224.67 -128.98 224.34 -130 224 C-119.09439625 204.83679853 -108.08320878 185.73528782 -96.82421875 166.77734375 C-95.09636119 163.86499815 -93.38574235 160.94485144 -91.70703125 158.00390625 C-90.76923828 156.36228516 -90.76923828 156.36228516 -89.8125 154.6875 C-89.30332031 153.78386719 -88.79414062 152.88023437 -88.26953125 151.94921875 C-87 150 -87 150 -85 149 C-82.37568851 148.90694844 -79.77815204 148.87420385 -77.15380859 148.88647461 C-76.34397018 148.88632858 -75.53413177 148.88618256 -74.69975281 148.8860321 C-72.01595404 148.88673023 -69.33222419 148.89451796 -66.6484375 148.90234375 C-64.79041583 148.90420829 -62.93239367 148.90563202 -61.07437134 148.90663147 C-56.17857512 148.91045385 -51.28280845 148.92028177 -46.38702393 148.93133545 C-41.39343669 148.94155556 -36.39984468 148.94613038 -31.40625 148.95117188 C-21.60415366 148.96190427 -11.80207929 148.97897736 -2 149 C-13.70463349 128.59979633 -13.70463349 128.59979633 -25.8125 108.4375 C-26.52455723 107.26853219 -27.23596947 106.09917128 -27.94677734 104.92944336 C-31.05394484 99.81720176 -34.1747225 94.71427237 -37.33203125 89.6328125 C-38.26348203 88.10965694 -39.19451212 86.58624398 -40.125 85.0625 C-40.75498901 84.07044556 -40.75498901 84.07044556 -41.39770508 83.05834961 C-44.06732344 78.64382125 -44.06732344 78.64382125 -43.74853516 75.59521484 C-42.96126701 72.86571049 -41.92632242 70.7171512 -40.515625 68.25390625 C-39.99959717 67.34608398 -39.48356934 66.43826172 -38.9519043 65.50292969 C-38.39027588 64.53258789 -37.82864746 63.56224609 -37.25 62.5625 C-36.66581299 61.54188477 -36.08162598 60.52126953 -35.47973633 59.46972656 C-30.01335338 49.94958023 -24.4350689 40.49587965 -18.81982422 31.06298828 C-16.76026405 27.59649487 -14.70971592 24.12475507 -12.66015625 20.65234375 C-11.55358713 18.77908563 -10.44683564 16.90593541 -9.33999634 15.03283691 C-8.61607734 13.8072599 -7.89258359 12.5814316 -7.16952515 11.35534668 C-6.16131617 9.64621299 -5.15101945 7.93831136 -4.140625 6.23046875 C-3.55829102 5.24457764 -2.97595703 4.25868652 -2.37597656 3.24291992 C-1 1 -1 1 0 0 Z " fill="#4B4B4B" transform="translate(183,62)"/>
<path d="M0 0 C0.66 0.33 1.32 0.66 2 1 C2.45703125 2.75 2.45703125 2.75 2.8125 5 C4.3492281 12.61103915 8.68104607 18.66553424 13 25 C14.94436238 27.95543082 16.29360781 30.73537271 17.4375 34.0625 C18.71366101 37.61988148 20.27503795 39.3551839 23 42 C26.38225911 47.35616771 29.08397982 53.11713854 31.7890625 58.8359375 C32.98451996 60.97233567 34.21341225 62.35046556 36 64 C38.10327245 66.98886085 38.59903329 70.10184286 38.51171875 73.7421875 C37.64720608 77.55660216 35.27115341 80.23134131 32.9296875 83.296875 C30.92787084 86.10103923 29.47522521 88.89006577 28 92 C25.61813758 96.96752056 22.81387048 101.27311708 19.578125 105.71875 C18.20651927 107.7014672 17.13986772 109.57264745 16.125 111.75 C14.20607309 115.84034419 11.81458954 119.58136608 9.375 123.375 C8.97812988 123.9947168 8.58125977 124.61443359 8.17236328 125.25292969 C6.58030617 127.70630796 5.07403388 129.92596612 3 132 C2.855625 132.680625 2.71125 133.36125 2.5625 134.0625 C2.2840625 135.0215625 2.2840625 135.0215625 2 136 C1.01 136.33 0.02 136.66 -1 137 C-4.31557239 134.0131266 -6.11390071 131.15346208 -8 127.125 C-10.3664172 122.19433458 -10.3664172 122.19433458 -13.25 117.5625 C-15 115 -15 115 -15.9375 112.5625 C-16.90311035 110.23367503 -17.88606872 108.68782713 -19.375 106.6875 C-21.68368013 103.57315144 -23.36682359 100.38428519 -25.04296875 96.8984375 C-26.45727559 94.09291454 -28.21020934 91.57940419 -30 89 C-31.02412284 87.48137986 -32.04473019 85.9603852 -33.0625 84.4375 C-33.57425781 83.67308594 -34.08601562 82.90867187 -34.61328125 82.12109375 C-35.70867849 80.44559881 -36.74135411 78.72910725 -37.75 77 C-38.84593522 74.85976155 -38.84593522 74.85976155 -41 74 C-39.96498133 70.06692904 -38.39649085 66.84677851 -36.2890625 63.40625 C-35.75104004 62.52146973 -35.21301758 61.63668945 -34.65869141 60.72509766 C-34.11132324 59.82581543 -33.56395508 58.9265332 -33 58 C-32.01802065 56.35323647 -31.03881286 54.70481682 -30.0625 53.0546875 C-29.56669434 52.21671631 -29.07088867 51.37874512 -28.56005859 50.51538086 C-28.04523926 49.64405518 -27.53041992 48.77272949 -27 47.875 C-26.17556396 46.48003296 -26.17556396 46.48003296 -25.33447266 45.05688477 C-20.38664593 36.67457758 -15.4783205 28.26943056 -10.58203125 19.85693359 C-10.02644531 18.90254395 -9.47085938 17.9481543 -8.8984375 16.96484375 C-8.41036621 16.1255835 -7.92229492 15.28632324 -7.41943359 14.42163086 C-6.41770232 12.71262286 -5.40264493 11.0113922 -4.37817383 9.31591797 C-3.17843163 7.29984101 -2.20382999 5.35215855 -1.3125 3.1875 C-0.879375 2.135625 -0.44625 1.08375 0 0 Z " fill="#C3C3C3" transform="translate(183,64)"/>
<path d="M0 0 C27.06 0 54.12 0 82 0 C82 0.66 82 1.32 82 2 C80.92492187 2.71285156 79.84984375 3.42570313 78.7421875 4.16015625 C74.64416067 6.97973881 73.06231267 9.95183429 71.125 14.4375 C68.46196536 20.17214082 65.57888243 25.57536615 62.125 30.875 C61.74359863 31.46337646 61.36219727 32.05175293 60.96923828 32.65795898 C59.44101721 34.97433003 57.96751289 37.03248711 56 39 C55.731875 39.86625 55.46375 40.7325 55.1875 41.625 C53.95809155 45.11910822 52.36699499 47.76927533 50.359375 50.8515625 C48.51881204 53.76049821 46.91605864 56.78171599 45.30859375 59.82421875 C43.6691922 62.55002969 42.25854093 64.72551463 40 67 C37.2879906 67.5092524 35.18923812 67.69257191 32.47753906 67.65942383 C31.72593002 67.66990753 30.97432098 67.68039124 30.19993591 67.69119263 C27.7214122 67.71994045 25.24428555 67.713652 22.765625 67.70703125 C21.0449651 67.72014656 19.3243206 67.73545027 17.60369873 67.75285339 C13.07940566 67.7927363 8.55551503 67.80289592 4.03106689 67.80688477 C-0.5874861 67.81621006 -5.20580203 67.85361976 -9.82421875 67.88867188 C-18.88280139 67.9532811 -27.94120712 67.9864938 -37 68 C-36.27189116 63.90342971 -35.15758373 61.31542612 -32.875 57.8125 C-28.59609864 51.1021056 -24.6402006 44.21892158 -20.6875 37.3125 C-15.72243089 28.6433022 -10.68528307 20.03857509 -5.32495117 11.60668945 C-4.91220947 10.94757568 -4.49946777 10.28846191 -4.07421875 9.609375 C-3.71932373 9.05217773 -3.36442871 8.49498047 -2.9987793 7.92089844 C-1.69638586 5.41607528 -0.89276916 2.67830748 0 0 Z " fill="#C5C5C5" transform="translate(97,213)"/>
<path d="M0 0 C26.73 0 53.46 0 81 0 C81 0.66 81 1.32 81 2 C81.66 2 82.32 2 83 2 C83.2475 3.03125 83.495 4.0625 83.75 5.125 C85.03580252 9.60282975 87.43995244 12.9680862 90.265625 16.6484375 C93.07645721 20.39056954 94.74853945 23.79620347 96.25390625 28.21875 C97.30616632 30.73095206 99.00195412 32.18927092 101 34 C103.42660765 37.49431502 104.79174206 41.01150779 106.05859375 45.03515625 C107.26488595 47.55285326 109.02845242 49.03212383 111 51 C112.1053514 52.77437988 113.14628822 54.59024557 114.125 56.4375 C114.62257813 57.36433594 115.12015625 58.29117188 115.6328125 59.24609375 C116.89775093 61.79404117 117.96059549 64.35431873 119 67 C109.14268821 67.06945503 99.28543446 67.12278834 89.42792797 67.15543652 C84.85087134 67.17110459 80.27398189 67.19236359 75.69702148 67.22631836 C71.28148565 67.25887126 66.8661108 67.27684441 62.45046425 67.28463173 C60.76431048 67.29018258 59.0781657 67.30102185 57.39208031 67.31719017 C55.03357146 67.33891075 52.67573115 67.34196924 50.31713867 67.34057617 C49.61726837 67.351362 48.91739807 67.36214783 48.19631958 67.3732605 C43.46553295 67.34294704 43.46553295 67.34294704 41.13642883 65.62715149 C39.63541683 63.47798575 38.30079268 61.27638718 37 59 C36.484375 58.175 35.96875 57.35 35.4375 56.5 C34 54 34 54 33.1875 51.6875 C32.07649516 49.17312062 30.93163726 47.51963349 29.25 45.375 C26.10939318 41.33051121 23.75649413 37.0420744 21.3671875 32.5234375 C19.97906897 29.86963816 19.97906897 29.86963816 18 27 C16.17574689 24.26362034 14.62011544 21.51828058 13.0625 18.625 C11.24132566 15.25720021 9.41301452 11.90509958 7.4375 8.625 C7.08558594 8.03976563 6.73367187 7.45453125 6.37109375 6.8515625 C4.51515672 4.34525437 2.20523045 2.20523045 0 0 Z " fill="#C4C4C4" transform="translate(186,213)"/>
<path d="M0 0 C5.05269866 4.4164329 7.97021357 9.69922598 11.25 15.5 C12.48643127 17.65265854 13.72343679 19.80498732 14.9609375 21.95703125 C15.93885254 23.66560303 15.93885254 23.66560303 16.93652344 25.40869141 C20.18070505 31.06628451 23.48026281 36.69158867 26.7791748 42.31738281 C27.84194239 44.13108443 28.90214624 45.94626314 29.96191406 47.76171875 C30.63855623 48.91803643 31.31531247 50.07428737 31.9921875 51.23046875 C32.64541992 52.34728027 33.29865234 53.4640918 33.97167969 54.61474609 C35.37915669 56.9638164 36.80461801 59.27595206 38.28613281 61.57666016 C38.65803741 62.15966385 39.02994202 62.74266754 39.41311646 63.34333801 C40.4448715 64.95260954 41.48984332 66.55338535 42.53564453 68.15356445 C44.05358231 71.10415408 44.33426423 72.74073685 44 76 C40.23955792 78.45275634 36.48852583 78.27588096 32.15795898 78.24291992 C31.37215454 78.24481827 30.5863501 78.24671661 29.7767334 78.24867249 C27.18308489 78.2523728 24.58971731 78.24168718 21.99609375 78.23046875 C20.19295789 78.22927647 18.38982141 78.22882389 16.58668518 78.2290802 C12.80978501 78.22751665 9.0329798 78.21923628 5.25610352 78.20581055 C0.41151343 78.18880877 -4.43297242 78.18499665 -9.27758884 78.18575573 C-12.99986264 78.18548401 -16.7221136 78.18000266 -20.44437981 78.17275429 C-22.23098515 78.16956942 -24.01759309 78.16760064 -25.80420113 78.16686058 C-28.29863026 78.1646958 -30.79294822 78.15594885 -33.28735352 78.14526367 C-34.39786324 78.14594345 -34.39786324 78.14594345 -35.5308075 78.14663696 C-38.62746069 78.1272115 -41.03851965 77.98716012 -44 77 C-45.51123047 74.84887695 -45.51123047 74.84887695 -47.1171875 71.98828125 C-47.71748779 70.93141113 -48.31778809 69.87454102 -48.9362793 68.78564453 C-49.89594604 67.06643799 -49.89594604 67.06643799 -50.875 65.3125 C-51.88731062 63.52390063 -52.90299422 61.73724256 -53.91868591 59.95056152 C-54.6086914 58.73608158 -55.29761703 57.52098753 -55.98548889 56.30529785 C-59.15462745 50.70661659 -62.40594176 45.15851942 -65.6875 39.625 C-66.20836182 38.74400635 -66.72922363 37.8630127 -67.26586914 36.95532227 C-69.97902921 32.37488704 -72.71581604 27.80973003 -75.4765625 23.2578125 C-76.03641846 22.33274902 -76.59627441 21.40768555 -77.1730957 20.45458984 C-78.24306875 18.68941316 -79.31695181 16.92659895 -80.39526367 15.16650391 C-80.86939697 14.38452637 -81.34353027 13.60254883 -81.83203125 12.796875 C-82.25202393 12.10948242 -82.6720166 11.42208984 -83.10473633 10.71386719 C-84 9 -84 9 -84 7 C-88.73603529 11.19550952 -91.47264345 15.92374911 -94.5 21.4375 C-95.56102814 23.33155444 -96.62357801 25.22475707 -97.6875 27.1171875 C-98.50541016 28.57656738 -98.50541016 28.57656738 -99.33984375 30.06542969 C-103.56224263 37.52914064 -107.98311501 44.87807095 -112.37109375 52.24511719 C-114.03661672 55.06192792 -115.67647772 57.89253099 -117.3125 60.7265625 C-118.37490178 62.54693233 -119.43739808 64.36724699 -120.5 66.1875 C-120.98017578 67.03127197 -121.46035156 67.87504395 -121.95507812 68.74438477 C-122.41333984 69.52354248 -122.87160156 70.3027002 -123.34375 71.10546875 C-123.73755859 71.78762451 -124.13136719 72.46978027 -124.53710938 73.17260742 C-126.48134638 75.60128132 -128.18686512 76.63366928 -131 78 C-133.69715311 78.2744548 -136.15598822 78.39071643 -138.84790039 78.35644531 C-140.0097863 78.35951187 -140.0097863 78.35951187 -141.19514465 78.36264038 C-143.74622489 78.36563957 -146.29665321 78.34719775 -148.84765625 78.328125 C-150.6245457 78.32506578 -152.40143754 78.3231909 -154.17832947 78.32244873 C-157.89803276 78.3178511 -161.6175189 78.30344547 -165.3371582 78.28125 C-170.10427738 78.25294762 -174.87122584 78.24203562 -179.63842106 78.2375679 C-183.30583908 78.2334106 -186.97322266 78.22359082 -190.64062309 78.21169281 C-192.39849002 78.20599764 -194.15636023 78.20123645 -195.91423225 78.19742584 C-198.37004529 78.19054834 -200.82572413 78.17690929 -203.28149414 78.16113281 C-204.00731689 78.16001495 -204.73313965 78.15889709 -205.48095703 78.15774536 C-208.7940676 78.12956813 -211.83132211 78.02295374 -215 77 C-215 76.34 -215 75.68 -215 75 C-215.99 74.67 -216.98 74.34 -218 74 C-216.68 71.69 -215.36 69.38 -214 67 C-213.67 68.32 -213.34 69.64 -213 71 C-213.66 71 -214.32 71 -215 71 C-215 71.99 -215 72.98 -215 74 C-204.11660819 73.98513714 -193.23367752 73.94359781 -182.35052872 73.86790943 C-177.29710189 73.83360487 -172.24397848 73.80852407 -167.19042969 73.80444336 C-162.31425282 73.80016784 -157.43876083 73.77176729 -152.56279755 73.72656822 C-150.70169818 73.71356929 -148.84051694 73.709294 -146.97937775 73.71384621 C-144.37384409 73.71873533 -141.77032519 73.69273713 -139.16503906 73.65942383 C-138.39395813 73.66804947 -137.6228772 73.67667511 -136.82843018 73.68556213 C-132.99523129 73.60329209 -131.36537364 73.36249951 -128.59661865 70.61552429 C-128.0697345 69.75240128 -127.54285034 68.88927826 -127 68 C-126.15308594 66.75863281 -126.15308594 66.75863281 -125.2890625 65.4921875 C-121.79420103 59.9955744 -118.54050261 54.43460328 -115.46875 48.69140625 C-113.56078722 45.19516595 -111.50057344 41.80224302 -109.43359375 38.3984375 C-108.07329965 36.12263211 -106.77608167 33.82385479 -105.5 31.5 C-101.15662705 23.61553319 -96.40560182 16.00054696 -91.515625 8.4453125 C-90.20909409 6.33735283 -89.06200999 4.23855048 -88 2 C-85 3 -85 3 -83.5625 4.5 C-82.13540326 6.17843361 -82.13540326 6.17843361 -80.1484375 6.1875 C-76.7493876 7.47295887 -75.67515728 10.43642571 -74.0625 13.5 C-73.53873779 14.45459106 -73.53873779 14.45459106 -73.00439453 15.4284668 C-71.99086341 17.2794157 -70.99363006 19.13831137 -70 21 C-67.00578672 26.51826083 -63.87371821 31.80800916 -60.34375 37.00390625 C-58.80721325 39.28637799 -57.40598604 41.63538712 -56 44 C-55.071875 45.3303125 -55.071875 45.3303125 -54.125 46.6875 C-51.91475987 50.13287432 -50.16991438 53.63589775 -48.44140625 57.33984375 C-47.96574219 58.21769531 -47.49007812 59.09554687 -47 60 C-46.24058105 61.7936499 -46.24058105 61.7936499 -45.46582031 63.62353516 C-43.36082675 66.50381825 -42.212005 66.9610911 -38.64732361 67.61531067 C-34.13377368 67.90837144 -29.62391052 67.78672296 -25.10546875 67.68359375 C-23.43111746 67.67053132 -21.75673934 67.66057019 -20.08235168 67.65357971 C-15.68398642 67.62690398 -11.28724986 67.5581883 -6.88952637 67.48065186 C-2.39858025 67.40893062 2.09263014 67.37704941 6.58398438 67.34179688 C15.3900688 67.26681457 24.19483158 67.14740939 33 67 C32.04581066 65.23484383 31.08971426 63.47071847 30.1328125 61.70703125 C29.33447998 60.23327026 29.33447998 60.23327026 28.52001953 58.72973633 C26.83281389 55.69975781 24.98398857 52.84371696 23 50 C20.48490832 46.37530905 18.63030542 43.07576354 17 39 C15.70672372 36.97386717 14.3703055 34.97485205 13 33 C10.48189664 29.37096869 8.6159384 26.08737361 7 22 C6.17948697 20.51368347 5.34470913 19.03519989 4.5 17.5625 C1.70410269 12.60389388 -0.21272794 7.6683588 -1 2 C-0.67 1.34 -0.34 0.68 0 0 Z " fill="#808080" transform="translate(271,212)"/>
<path d="M0 0 C0.33 0.66 0.66 1.32 1 2 C29.38 2 57.76 2 87 2 C87.33 4.31 87.66 6.62 88 9 C88.47198357 10.6605018 88.98665061 12.31009956 89.5625 13.9375 C89.83191406 14.70964844 90.10132813 15.48179687 90.37890625 16.27734375 C90.58386719 16.84582031 90.78882813 17.41429687 91 18 C87.74006022 15.82670681 86.66762322 14.49406769 85 11 C84.8125 7.6875 84.8125 7.6875 85 5 C84.34 5 83.68 5 83 5 C83 4.34 83 3.68 83 3 C43.4 3.495 43.4 3.495 3 4 C4.65 5.65 6.3 7.3 8 9 C5.625 8.6875 5.625 8.6875 3 8 C2.01 6.515 2.01 6.515 1 5 C0.34 5 -0.32 5 -1 5 C-1.30550781 5.58523437 -1.61101562 6.17046875 -1.92578125 6.7734375 C-5.18270151 12.8836034 -8.67545062 18.79771702 -12.3125 24.6875 C-15.84766532 30.41750342 -19.28900969 36.17886661 -22.5625 42.0625 C-38.28910447 70.28910447 -38.28910447 70.28910447 -44 76 C-46.61688441 76.09509559 -49.207289 76.12556 -51.82446289 76.11352539 C-52.64390884 76.11367142 -53.4633548 76.11381744 -54.30763245 76.1139679 C-57.02933353 76.11326852 -59.75096705 76.10547501 -62.47265625 76.09765625 C-64.35452741 76.09579216 -66.23639906 76.09436821 -68.11827087 76.09336853 C-73.08148529 76.08954267 -78.04467064 76.07971181 -83.00787354 76.06866455 C-88.06839606 76.0584519 -93.12892327 76.05387122 -98.18945312 76.04882812 C-108.12631488 76.0380896 -118.06315503 76.02101236 -128 76 C-128 75.01 -128 74.02 -128 73 C-127.34 73 -126.68 73 -126 73 C-126 71.02 -126 69.04 -126 67 C-125.01 67.33 -124.02 67.66 -123 68 C-123 68.66 -123 69.32 -123 70 C-113.15965389 69.98513368 -103.31981762 69.94357907 -93.47974014 69.86790943 C-88.91058025 69.83361238 -84.34175566 69.80852527 -79.77246094 69.80444336 C-75.36309019 69.80016616 -70.95447619 69.7717523 -66.54534149 69.72656822 C-64.86287595 69.71357456 -63.18031992 69.70929217 -61.49781036 69.71384621 C-59.14126292 69.71873932 -56.78693829 69.69272207 -54.43066406 69.65942383 C-53.73438904 69.66804947 -53.03811401 69.67667511 -52.32073975 69.68556213 C-48.66611909 69.59893865 -47.26313369 69.26211751 -44.63323975 66.64237976 C-42.89251135 63.82609667 -41.40685327 60.99720915 -40 58 C-38.04962663 53.84485673 -35.89011771 50.55520756 -33 47 C-32.71125 46.0925 -32.4225 45.185 -32.125 44.25 C-30.33660281 39.08351923 -27.10411722 34.79104188 -23.82666016 30.44360352 C-20.14909183 25.49443818 -17.58227271 20.29542956 -15.0390625 14.69726562 C-12.99533771 10.40135612 -11.1346094 7.63173329 -7 5 C-6.34 5 -5.68 5 -5 5 C-5 4.34 -5 3.68 -5 3 C-30.74 3 -56.48 3 -83 3 C-83 2.67 -83 2.34 -83 2 C-81.97491837 1.98969254 -80.94983673 1.97938507 -79.89369202 1.96876526 C-70.25486762 1.87120331 -60.61611027 1.76848602 -50.97739506 1.66066074 C-46.02149288 1.60538798 -41.06558486 1.55196116 -36.10961914 1.50268555 C-31.3309593 1.45510604 -26.55237358 1.40276582 -21.7738018 1.34705925 C-19.94648511 1.32660653 -18.11914806 1.30789839 -16.29179573 1.29092598 C-13.74141166 1.26694626 -11.19116903 1.23688336 -8.64086914 1.20532227 C-7.87770386 1.1995668 -7.11453857 1.19381134 -6.32824707 1.18788147 C-2.8730815 1.44732933 -2.8730815 1.44732933 0 0 Z " fill="#606060" transform="translate(184,210)"/>
<path d="M0 0 C3.34726719 1.11575573 3.62079748 1.51344622 5.25 4.4375 C5.8275 5.613125 6.405 6.78875 7 8 C6.67 8.66 6.34 9.32 6 10 C5.01 7.525 5.01 7.525 4 5 C-0.73603529 9.19550952 -3.47264345 13.92374911 -6.5 19.4375 C-7.56102814 21.33155444 -8.62357801 23.22475707 -9.6875 25.1171875 C-10.50541016 26.57656738 -10.50541016 26.57656738 -11.33984375 28.06542969 C-15.56224263 35.52914064 -19.98311501 42.87807095 -24.37109375 50.24511719 C-26.03661672 53.06192792 -27.67647772 55.89253099 -29.3125 58.7265625 C-30.37490178 60.54693233 -31.43739808 62.36724699 -32.5 64.1875 C-32.98017578 65.03127197 -33.46035156 65.87504395 -33.95507812 66.74438477 C-34.41333984 67.52354248 -34.87160156 68.3027002 -35.34375 69.10546875 C-35.73755859 69.78762451 -36.13136719 70.46978027 -36.53710938 71.17260742 C-38.48134638 73.60128132 -40.18686512 74.63366928 -43 76 C-45.69715311 76.2744548 -48.15598822 76.39071643 -50.84790039 76.35644531 C-52.0097863 76.35951187 -52.0097863 76.35951187 -53.19514465 76.36264038 C-55.74622489 76.36563957 -58.29665321 76.34719775 -60.84765625 76.328125 C-62.6245457 76.32506578 -64.40143754 76.3231909 -66.17832947 76.32244873 C-69.89803276 76.3178511 -73.6175189 76.30344547 -77.3371582 76.28125 C-82.10427738 76.25294762 -86.87122584 76.24203562 -91.63842106 76.2375679 C-95.30583908 76.2334106 -98.97322266 76.22359082 -102.64062309 76.21169281 C-104.39849002 76.20599764 -106.15636023 76.20123645 -107.91423225 76.19742584 C-110.37004529 76.19054834 -112.82572413 76.17690929 -115.28149414 76.16113281 C-116.00731689 76.16001495 -116.73313965 76.15889709 -117.48095703 76.15774536 C-120.7940676 76.12956813 -123.83132211 76.02295374 -127 75 C-127 74.34 -127 73.68 -127 73 C-127.99 72.67 -128.98 72.34 -130 72 C-128.68 69.69 -127.36 67.38 -126 65 C-125.67 66.32 -125.34 67.64 -125 69 C-125.66 69 -126.32 69 -127 69 C-127 69.99 -127 70.98 -127 72 C-116.11660819 71.98513714 -105.23367752 71.94359781 -94.35052872 71.86790943 C-89.29710189 71.83360487 -84.24397848 71.80852407 -79.19042969 71.80444336 C-74.31425282 71.80016784 -69.43876083 71.77176729 -64.56279755 71.72656822 C-62.70169818 71.71356929 -60.84051694 71.709294 -58.97937775 71.71384621 C-56.37384409 71.71873533 -53.77032519 71.69273713 -51.16503906 71.65942383 C-50.39395813 71.66804947 -49.6228772 71.67667511 -48.82843018 71.68556213 C-44.99523129 71.60329209 -43.36537364 71.36249951 -40.59661865 68.61552429 C-40.0697345 67.75240128 -39.54285034 66.88927826 -39 66 C-38.15308594 64.75863281 -38.15308594 64.75863281 -37.2890625 63.4921875 C-33.79420103 57.9955744 -30.54050261 52.43460328 -27.46875 46.69140625 C-25.56078722 43.19516595 -23.50057344 39.80224302 -21.43359375 36.3984375 C-20.07329965 34.12263211 -18.77608167 31.82385479 -17.5 29.5 C-13.15662705 21.61553319 -8.40560182 14.00054696 -3.515625 6.4453125 C-2.20909409 4.33735283 -1.06200999 2.23855048 0 0 Z " fill="#111111" transform="translate(183,214)"/>
<path d="M0 0 C27.06 0 54.12 0 82 0 C82 0.66 82 1.32 82 2 C78.01031118 5.10521169 74.83972864 5.38458405 69.87060547 5.41650391 C69.17243713 5.42508926 68.4742688 5.43367462 67.75494385 5.44252014 C65.45892134 5.46751084 63.16333339 5.47195255 60.8671875 5.4765625 C59.26724943 5.49087862 57.66732368 5.50663673 56.06741333 5.52377319 C51.86332643 5.56557371 47.65931586 5.59060524 43.45507812 5.61126709 C36.71893853 5.64712135 29.98298723 5.70807507 23.24704361 5.76975632 C20.89442234 5.78884156 18.54185146 5.8005741 16.18917847 5.81118774 C14.74965303 5.82139876 13.31012862 5.83175659 11.87060547 5.84228516 C10.61327606 5.84878082 9.35594666 5.85527649 8.06051636 5.86196899 C4.95789096 5.8622786 4.95789096 5.8622786 2 7 C0.44939547 9.34492003 0.44939547 9.34492003 -0.9375 12.1875 C-3.09157455 16.30995302 -5.39943278 20.1410938 -8 24 C-9.25969576 26.21906671 -10.4822604 28.45680824 -11.70703125 30.6953125 C-13.67887912 34.21008664 -15.84177496 37.59779802 -18 41 C-19.55431076 43.51080968 -20.98027968 45.95858734 -22.25 48.625 C-25.93508311 55.73194599 -29.94306362 62.67723773 -36 68 C-37 65 -37 65 -35.5078125 62.0078125 C-34.72333388 60.70758312 -33.92800051 59.41387289 -33.125 58.125 C-32.20200279 56.60224214 -31.28022462 55.07874501 -30.359375 53.5546875 C-29.83408203 52.69069336 -29.30878906 51.82669922 -28.76757812 50.93652344 C-26.76002328 47.60132044 -24.78998221 44.24499974 -22.828125 40.8828125 C-22.46286713 40.25710358 -22.09760925 39.63139465 -21.72128296 38.98672485 C-20.24708383 36.46040722 -18.77360264 33.93367134 -17.300354 31.40679932 C-16.25120937 29.60886244 -15.20029322 27.811977 -14.1484375 26.015625 C-13.80777252 25.43283783 -13.46710754 24.85005066 -13.11611938 24.24960327 C-11.37319217 21.28241271 -9.59912871 18.34055313 -7.76660156 15.42773438 C-7.40353912 14.84892517 -7.04047668 14.27011597 -6.66641235 13.67376709 C-5.66710841 12.08836407 -4.65928649 10.50833914 -3.65087891 8.92871094 C-1.65958152 5.61331712 -1.65958152 5.61331712 0 0 Z " fill="#F7F7F7" transform="translate(97,213)"/>
<path d="M0 0 C0.66 0 1.32 0 2 0 C1.4093392 4.24595176 -0.07004298 7.21289874 -2.25390625 10.8828125 C-2.58671097 11.44682266 -2.91951569 12.01083282 -3.2624054 12.5919342 C-4.3554691 14.44052445 -5.45868909 16.28281022 -6.5625 18.125 C-7.32561787 19.40891335 -8.0881428 20.6931793 -8.85009766 21.9777832 C-10.43124924 24.64186861 -12.01623853 27.30362468 -13.60302734 29.96435547 C-15.95302986 33.91177335 -18.26984447 37.87800944 -20.58203125 41.84765625 C-21.66456738 43.69953104 -22.74792701 45.55092053 -23.83175659 47.40203857 C-24.52483793 48.58821429 -25.21587414 49.77558744 -25.90481567 50.96417236 C-26.86509582 52.61913506 -27.83467777 54.26868994 -28.8046875 55.91796875 C-29.35108887 56.85406982 -29.89749023 57.7901709 -30.46044922 58.75463867 C-32 61 -32 61 -35 63 C-37.48439335 63.20727817 -39.85986044 63.3008953 -42.34545898 63.30297852 C-43.09049683 63.31141785 -43.83553467 63.31985718 -44.60314941 63.32855225 C-47.06747064 63.35435442 -49.53167196 63.36647738 -51.99609375 63.37890625 C-53.70859222 63.39508042 -55.42108146 63.41226033 -57.13356018 63.43040466 C-61.64470143 63.47612329 -66.15585505 63.51090751 -70.66711426 63.54260254 C-77.88460802 63.59444001 -85.10196543 63.65968967 -92.31929207 63.73081779 C-94.84081455 63.75363229 -97.36231987 63.7699173 -99.88389587 63.78553772 C-101.4309813 63.79894782 -102.97806496 63.81256292 -104.52514648 63.82641602 C-105.57651543 63.83033607 -105.57651543 63.83033607 -106.64912415 63.83433533 C-109.90767106 63.86896899 -112.88214989 64.00503787 -116 65 C-116 64.01 -116 63.02 -116 62 C-115.34 62 -114.68 62 -114 62 C-114 60.02 -114 58.04 -114 56 C-113.01 56.33 -112.02 56.66 -111 57 C-111 57.66 -111 58.32 -111 59 C-101.15965389 58.98513368 -91.31981762 58.94357907 -81.47974014 58.86790943 C-76.91058025 58.83361238 -72.34175566 58.80852527 -67.77246094 58.80444336 C-63.36309019 58.80016616 -58.95447619 58.7717523 -54.54534149 58.72656822 C-52.86287595 58.71357456 -51.18031992 58.70929217 -49.49781036 58.71384621 C-47.14126292 58.71873932 -44.78693829 58.69272207 -42.43066406 58.65942383 C-41.73438904 58.66804947 -41.03811401 58.67667511 -40.32073975 58.68556213 C-36.66611909 58.59893865 -35.26313369 58.26211751 -32.63323975 55.64237976 C-30.89251135 52.82609667 -29.40685327 49.99720915 -28 47 C-26.04962663 42.84485673 -23.89011771 39.55520756 -21 36 C-20.71125 35.0925 -20.4225 34.185 -20.125 33.25 C-18.30520934 27.99282697 -14.98099887 23.65686907 -11.671875 19.21875 C-8.56839582 15.05458807 -6.29930315 10.75289473 -4.11328125 6.0390625 C-3 4 -3 4 -1 3 C-0.67 2.01 -0.34 1.02 0 0 Z " fill="#676767" transform="translate(172,221)"/>
<path d="M0 0 C0.66 0 1.32 0 2 0 C3.58129883 2.31298828 3.58129883 2.31298828 5.45703125 5.5703125 C5.79626114 6.15434341 6.13549103 6.73837433 6.48500061 7.34010315 C7.60092986 9.26457624 8.70653378 11.19478712 9.8125 13.125 C10.58332062 14.45726566 11.35497384 15.78904992 12.12744141 17.12036133 C13.68670711 19.80885376 15.24280167 22.49913914 16.79638672 25.19091797 C19.79140913 30.37485345 22.82846894 35.5337031 25.875 40.6875 C26.3913501 41.56486816 26.9077002 42.44223633 27.43969727 43.34619141 C29.97848469 47.64619959 32.55669622 51.91468717 35.2109375 56.14453125 C35.72285645 56.9641333 36.23477539 57.78373535 36.76220703 58.62817383 C37.7204304 60.1557649 38.68694224 61.67820378 39.66357422 63.1940918 C40.08912598 63.8725415 40.51467773 64.55099121 40.953125 65.25 C41.32598633 65.83265625 41.69884766 66.4153125 42.08300781 67.015625 C43.34119364 69.73834449 43.80092356 72.00229563 44 75 C42.97460938 77.67114258 42.97460938 77.67114258 41.34375 80.39453125 C40.74079102 81.4198999 40.13783203 82.44526855 39.51660156 83.50170898 C38.85112305 84.59427002 38.18564453 85.68683105 37.5 86.8125 C36.8133108 87.96665724 36.12811219 89.12170251 35.44433594 90.27758789 C33.66635484 93.27376651 31.86866701 96.25757278 30.06469727 99.23815918 C28.38321331 102.0206469 26.71572302 104.81148343 25.046875 107.6015625 C23.21762567 110.65778683 21.38630303 113.71246369 19.54101562 116.7590332 C13.88902256 126.09980566 8.47480826 135.543513 3 145 C29.4 145 55.8 145 83 145 C83 145.33 83 145.66 83 146 C54.95 146 26.9 146 -2 146 C-0.43693077 142.09232692 0.97419168 139.30921526 3.25 135.875 C5.58429122 132.27050924 7.78663451 128.66123294 9.8125 124.875 C15.29268629 114.63454466 21.33898845 104.68799031 27.359375 94.7578125 C28.76818306 92.38967323 30.14618342 90.00816392 31.515625 87.6171875 C31.96550781 86.83730469 32.41539062 86.05742187 32.87890625 85.25390625 C33.78344611 83.68449094 34.68202735 82.11162423 35.57421875 80.53515625 C35.98800781 79.81972656 36.40179688 79.10429687 36.828125 78.3671875 C37.1984082 77.71862793 37.56869141 77.07006836 37.95019531 76.40185547 C38.46984863 75.70793701 38.46984863 75.70793701 39 75 C39.66 75 40.32 75 41 75 C40.5290737 69.38376787 38.35649135 65.85437488 35.375 61.25 C30.520079 53.54063317 25.90294939 45.71820862 21.375 37.8125 C15.07049726 26.83030967 8.75689199 15.86050963 1.9375 5.1875 C0 2 0 2 0 0 Z " fill="#070707" transform="translate(187,66)"/>
<path d="M0 0 C4.74236198 4.22312526 7.61185524 9.01725865 10.75 14.5 C11.30002686 15.44544678 11.85005371 16.39089355 12.41674805 17.36499023 C13.62569076 19.44326249 14.83151765 21.52334952 16.03466797 23.60498047 C19.24032211 29.14259867 22.47626354 34.6624181 25.71179199 40.18261719 C26.78019599 42.00732846 27.84595305 43.8335614 28.91113281 45.66015625 C29.59302586 46.82686564 30.27499109 47.99353285 30.95703125 49.16015625 C31.61654785 50.28953613 32.27606445 51.41891602 32.95556641 52.58251953 C34.36943474 54.94594549 35.80093345 57.27152689 37.29052734 59.58544922 C37.66247726 60.16854355 38.03442719 60.75163788 38.41764832 61.35240173 C39.448588 62.96014197 40.4927969 64.55935132 41.5378418 66.15795898 C43.05455902 69.10604802 43.33355221 70.74329038 43 74 C39.23955792 76.45275634 35.48852583 76.27588096 31.15795898 76.24291992 C30.37215454 76.24481827 29.5863501 76.24671661 28.7767334 76.24867249 C26.18308489 76.2523728 23.58971731 76.24168718 20.99609375 76.23046875 C19.19295789 76.22927647 17.38982141 76.22882389 15.58668518 76.2290802 C11.80978501 76.22751665 8.0329798 76.21923628 4.25610352 76.20581055 C-0.58848657 76.18880877 -5.43297242 76.18499665 -10.27758884 76.18575573 C-13.99986264 76.18548401 -17.7221136 76.18000266 -21.44437981 76.17275429 C-23.23098515 76.16956942 -25.01759309 76.16760064 -26.80420113 76.16686058 C-29.29863026 76.1646958 -31.79294822 76.15594885 -34.28735352 76.14526367 C-35.39786324 76.14594345 -35.39786324 76.14594345 -36.5308075 76.14663696 C-39.62746069 76.1272115 -42.03851965 75.98716012 -45 75 C-45.33 73.68 -45.66 72.36 -46 71 C-17.95 71.33 10.1 71.66 39 72 C37.43100076 66.19878743 37.43100076 66.19878743 35.0390625 61.08203125 C34.6565332 60.39608887 34.27400391 59.71014648 33.87988281 59.00341797 C33.25871582 57.91891357 33.25871582 57.91891357 32.625 56.8125 C31.96516113 55.64291748 31.96516113 55.64291748 31.29199219 54.44970703 C27.55864315 47.87644884 23.6776886 41.3932708 19.76879883 34.92333984 C15.56258073 27.95950978 11.42229045 20.95865506 7.3125 13.9375 C6.69987305 12.89577637 6.08724609 11.85405273 5.45605469 10.78076172 C4.88918945 9.81025879 4.32232422 8.83975586 3.73828125 7.83984375 C3.23337158 6.97738037 2.72846191 6.11491699 2.20825195 5.22631836 C1 3 1 3 0 0 Z " fill="#030303" transform="translate(272,214)"/>
<path d="M0 0 C0.99 0.33 1.98 0.66 3 1 C3.495 5.455 3.495 5.455 4 10 C4.99 8.68 5.98 7.36 7 6 C6.48768078 10.55764504 5.39691448 13.41642281 2.8125 17.1875 C0.35533614 20.8857568 -1.91826097 24.57780167 -4 28.5 C-6.53499634 33.24637613 -9.35727385 37.73579121 -12.28125 42.25 C-13.969297 44.9508752 -15.49979676 47.69110883 -17 50.5 C-19.55191502 55.27718491 -22.38163344 59.8080817 -25.33203125 64.34765625 C-27.34865443 67.55441771 -29.12943261 70.85414166 -30.859375 74.22265625 C-32 76 -32 76 -35 78 C-35 77.34 -35 76.68 -35 76 C-35.66 76 -36.32 76 -37 76 C-37.495 73.525 -37.495 73.525 -38 71 C-36.68 71 -35.36 71 -34 71 C-33.89171875 70.26523438 -33.7834375 69.53046875 -33.671875 68.7734375 C-32.95867578 65.82941744 -31.97801817 64.09232492 -30.25 61.625 C-29.70859375 60.83996094 -29.1671875 60.05492187 -28.609375 59.24609375 C-27.65557515 57.91494105 -26.69090771 56.59129062 -25.703125 55.28515625 C-22.30716525 50.77558632 -19.92228792 45.97551717 -17.52734375 40.8671875 C-15.95887191 37.92279279 -14.10847395 35.57464771 -12 33 C-11.08044924 31.16089849 -10.16398903 29.32003326 -9.27734375 27.46484375 C-7.6052144 24.2381966 -5.7209956 21.15260624 -3.8125 18.0625 C-3.27641113 17.19238281 -3.27641113 17.19238281 -2.72949219 16.3046875 C-0.1404349 12.1404349 -0.1404349 12.1404349 1 11 C1.21326403 5.3952291 1.21326403 5.3952291 0 0 Z " fill="#6F6F6F" transform="translate(219,129)"/>
<path d="M0 0 C1 2 1 2 0.0625 5.3125 C-1.86756078 10.13340072 -4.60082847 14.3473447 -7.3671875 18.7265625 C-10.8537088 24.3121967 -14.0972499 30.04038397 -17.375 35.75 C-22.1607647 44.07835803 -26.9645132 52.39376823 -31.85498047 60.66113281 C-34.27457239 64.75316912 -36.64997418 68.86756182 -39 73 C-38.09507812 73.38285156 -38.09507812 73.38285156 -37.171875 73.7734375 C-33.4712402 75.86336435 -31.66411904 79.16383804 -30 83 C-29.61254565 85.82219835 -29.74428254 88.13596442 -30 91 C-28.515 90.505 -28.515 90.505 -27 90 C-25.38935371 93.65079826 -24.55105909 97.0507432 -24 101 C-22.515 100.505 -22.515 100.505 -21 100 C-18 104.75 -18 104.75 -18 107 C-18.66 107 -19.32 107 -20 107 C-20 107.99 -20 108.98 -20 110 C-23.08155445 107.31631714 -24.9313089 103.96791008 -26.94140625 100.46875 C-27.30975082 99.83642456 -27.6780954 99.20409912 -28.05760193 98.5526123 C-29.23029996 96.53759267 -30.39660389 94.51896148 -31.5625 92.5 C-32.73324476 90.48180635 -33.90529195 88.4643773 -35.07810974 86.4473877 C-35.80637657 85.19393948 -36.53321192 83.93965818 -37.25843811 82.68444824 C-38.77392165 80.06772888 -40.32173166 77.5174025 -42 75 C-41.65571329 71.25377808 -40.36900008 68.49011887 -38.515625 65.25390625 C-37.9995166 64.34592285 -37.4834082 63.43793945 -36.95166016 62.50244141 C-36.3901123 61.53226074 -35.82856445 60.56208008 -35.25 59.5625 C-34.66653809 58.54333496 -34.08307617 57.52416992 -33.48193359 56.47412109 C-22.58302918 37.49544871 -11.28199075 18.75233917 0 0 Z " fill="#3A3A3A" transform="translate(181,65)"/>
<path d="M0 0 C1.81640625 0.03125 1.81640625 0.03125 4 1 C5.49334914 3.16134826 6.72223231 5.191349 7.9375 7.5 C8.2866748 8.13639404 8.63584961 8.77278809 8.99560547 9.4284668 C10.00913659 11.2794157 11.00636994 13.13831137 12 15 C14.99421328 20.51826083 18.12628179 25.80800916 21.65625 31.00390625 C23.19278675 33.28637799 24.59401396 35.63538712 26 38 C26.66 38.969375 27.32 39.93875 28 40.9375 C32.04107217 47.12539176 33.23437036 50.73451897 33 58 C33.41731018 60.35529281 33.41731018 60.35529281 34 62 C31.49611817 59.70873367 29.89196175 57.34481973 28.20703125 54.40625 C27.6665918 53.47095459 27.12615234 52.53565918 26.56933594 51.57202148 C25.98958008 50.55825439 25.40982422 49.5444873 24.8125 48.5 C20.79114039 41.51731118 16.75127436 34.55231395 12.58984375 27.65234375 C11.8588928 26.43624317 11.12801652 25.22009771 10.3972168 24.00390625 C9.33274376 22.23292349 8.265923 20.46362629 7.19058228 18.69921875 C0.27456323 7.34550408 0.27456323 7.34550408 -1 1 C-0.67 0.67 -0.34 0.34 0 0 Z " fill="#434343" transform="translate(189,218)"/>
<path d="M0 0 C0.25523437 0.53882813 0.51046875 1.07765625 0.7734375 1.6328125 C2.2485057 4.47960017 3.92375845 7.15708023 5.625 9.875 C8.84984158 15.0633332 11.92586398 20.32004273 14.93481445 25.63745117 C17.33128034 29.86007155 19.8011837 34.03229202 22.3125 38.1875 C25.90181888 44.1390473 29.43842377 50.11992966 32.9375 56.125 C33.41034424 56.93090576 33.88318848 57.73681152 34.37036133 58.56713867 C36.53758551 62.29986455 38.56294926 65.91056417 40 70 C39.01 70 38.02 70 37 70 C37 69.34 37 68.68 37 68 C36.34 68 35.68 68 35 68 C35 67.01 35 66.02 35 65 C34.41347656 64.79246094 33.82695312 64.58492188 33.22265625 64.37109375 C30.15714313 62.48006544 29.14286929 60.20999365 27.4375 57.0625 C25.52203859 53.55153176 23.82454219 50.79315839 21 48 C19.97265625 45.94921875 19.97265625 45.94921875 19.0625 43.6875 C17.40528641 39.79336312 15.46072577 36.46039561 13 33 C10.48189664 29.37096869 8.6159384 26.08737361 7 22 C6.17948697 20.51368347 5.34470913 19.03519989 4.5 17.5625 C1.70410269 12.60389388 -0.21272794 7.6683588 -1 2 C-0.67 1.34 -0.34 0.68 0 0 Z " fill="#4C4C4C" transform="translate(271,212)"/>
<path d="M0 0 C0.495 0.99 0.495 0.99 1 2 C-0.0390625 4.27734375 -0.0390625 4.27734375 -1.625 6.9375 C-2.38683594 8.25041016 -2.38683594 8.25041016 -3.1640625 9.58984375 C-5.29794912 12.39113746 -6.81947057 13.48298543 -10 15 C-12.69715311 15.2744548 -15.15598822 15.39071643 -17.84790039 15.35644531 C-19.0097863 15.35951187 -19.0097863 15.35951187 -20.19514465 15.36264038 C-22.74622489 15.36563957 -25.29665321 15.34719775 -27.84765625 15.328125 C-29.6245457 15.32506578 -31.40143754 15.3231909 -33.17832947 15.32244873 C-36.89803276 15.3178511 -40.6175189 15.30344547 -44.3371582 15.28125 C-49.10427738 15.25294762 -53.87122584 15.24203562 -58.63842106 15.2375679 C-62.30583908 15.2334106 -65.97322266 15.22359082 -69.64062309 15.21169281 C-71.39849002 15.20599764 -73.15636023 15.20123645 -74.91423225 15.19742584 C-77.37004529 15.19054834 -79.82572413 15.17690929 -82.28149414 15.16113281 C-83.00731689 15.16001495 -83.73313965 15.15889709 -84.48095703 15.15774536 C-87.7940676 15.12956813 -90.83132211 15.02295374 -94 14 C-94 13.34 -94 12.68 -94 12 C-94.99 11.67 -95.98 11.34 -97 11 C-95.68 8.69 -94.36 6.38 -93 4 C-92.67 5.32 -92.34 6.64 -92 8 C-92.66 8 -93.32 8 -94 8 C-93.67 8.99 -93.34 9.98 -93 11 C-91.44691635 11.0154612 -91.44691635 11.0154612 -89.86245728 11.03123474 C-80.12093262 11.12884818 -70.37947356 11.23157066 -60.6380558 11.33933926 C-55.62949478 11.39458319 -50.62092793 11.44800555 -45.61230469 11.49731445 C-40.78177061 11.5449363 -35.95130894 11.59727832 -31.12086105 11.65294075 C-29.27483287 11.67337419 -27.42878481 11.69208562 -25.58272171 11.70907402 C-23.00380498 11.73309615 -20.42502578 11.76315364 -17.84619141 11.79467773 C-17.07727066 11.8004332 -16.30834991 11.80618866 -15.51612854 11.81211853 C-10.22810432 11.88594784 -10.22810432 11.88594784 -8 13 C-7.67 12.01 -7.34 11.02 -7 10 C-6.34 10 -5.68 10 -5 10 C-4.731875 9.278125 -4.46375 8.55625 -4.1875 7.8125 C-3.01017502 5.02409874 -1.60854116 2.55904276 0 0 Z " fill="#040404" transform="translate(150,275)"/>
<path d="M0 0 C0.99 0.495 0.99 0.495 2 1 C2 1.66 2 2.32 2 3 C-40.57 3.495 -40.57 3.495 -84 4 C-84.33 5.98 -84.66 7.96 -85 10 C-86.25244141 12.56347656 -86.25244141 12.56347656 -87.8515625 15.140625 C-88.44855957 16.11660645 -89.04555664 17.09258789 -89.66064453 18.09814453 C-90.30888184 19.13825684 -90.95711914 20.17836914 -91.625 21.25 C-92.99174824 23.48044569 -94.35626014 25.71226299 -95.71875 27.9453125 C-96.06994904 28.51921722 -96.42114807 29.09312195 -96.7829895 29.68441772 C-101.34631362 37.16443609 -105.66398481 44.78643611 -109.98681641 52.40722656 C-113.07449787 57.81301022 -116.11708439 63.12217362 -120 68 C-120.66 68 -121.32 68 -122 68 C-120.61873571 64.31842978 -118.95191497 60.9977555 -116.98046875 57.59765625 C-116.37654297 56.55303223 -115.77261719 55.5084082 -115.15039062 54.43212891 C-114.50263672 53.32015137 -113.85488281 52.20817383 -113.1875 51.0625 C-112.51348511 49.90033616 -111.83965931 48.73806264 -111.16601562 47.57568359 C-105.77127583 38.27862199 -100.313324 29.01897587 -94.82421875 19.77734375 C-93.09636119 16.86499815 -91.38574235 13.94485144 -89.70703125 11.00390625 C-89.08183594 9.90949219 -88.45664063 8.81507813 -87.8125 7.6875 C-87.04873047 6.33205078 -87.04873047 6.33205078 -86.26953125 4.94921875 C-85 3 -85 3 -83 2 C-80.37568851 1.90694844 -77.77815204 1.87420385 -75.15380859 1.88647461 C-74.34397018 1.88632858 -73.53413177 1.88618256 -72.69975281 1.8860321 C-70.01595404 1.88673023 -67.33222419 1.89451796 -64.6484375 1.90234375 C-62.79041583 1.90420829 -60.93239367 1.90563202 -59.07437134 1.90663147 C-54.17857512 1.91045385 -49.28280845 1.92028177 -44.38702393 1.93133545 C-39.39343669 1.94155556 -34.39984468 1.94613038 -29.40625 1.95117188 C-19.60415366 1.96190427 -9.80207929 1.97897736 0 2 C0 1.34 0 0.68 0 0 Z " fill="#171717" transform="translate(181,209)"/>
<path d="M0 0 C1.8125 0.5625 1.8125 0.5625 4 2 C4.74383224 3.68632212 5.48212194 5.37559136 6.1763916 7.08291626 C7.45989479 10.07048062 9.11143422 12.8095756 10.765625 15.60546875 C11.12211121 16.21078934 11.47859741 16.81610992 11.84588623 17.43977356 C12.97670397 19.35800943 14.11316836 21.27282342 15.25 23.1875 C15.99648337 24.45094176 16.74257985 25.71461218 17.48828125 26.97851562 C17.85499435 27.59970779 18.22170746 28.22089996 18.59953308 28.86091614 C19.33231712 30.10229739 20.06499418 31.34374179 20.79756165 32.58525085 C22.5487877 35.55115595 24.3062055 38.51290907 26.07885742 41.46606445 C26.71154541 42.52913818 27.3442334 43.59221191 27.99609375 44.6875 C28.5573999 45.62335938 29.11870605 46.55921875 29.69702148 47.5234375 C31.35764783 50.67977882 31.79166164 53.45824785 32 57 C32.57988337 59.36629826 33.28645246 61.66907803 34 64 C30.82659177 61.88439452 30.4969604 61.34839189 29.1875 58 C26.77545419 52.26675265 23.93257317 45.86675482 19.43359375 41.46875 C17.72894983 39.72230282 17.03893249 38.13152357 16.125 35.875 C13.56327842 29.86179858 10.50054294 24.25081441 6.875 18.8125 C3.37835642 13.56753463 1.63085319 9.30853195 1 3 C0.34 3 -0.32 3 -1 3 C-0.67 2.01 -0.34 1.02 0 0 Z " fill="#515151" transform="translate(183,62)"/>
<path d="M0 0 C0.33 0 0.66 0 1 0 C2.08586425 8.00824888 -0.50143339 12.1370442 -4.88671875 18.7578125 C-7.64973258 22.99681708 -9.8525655 27.42637748 -12 32 C-12.66 32 -13.32 32 -14 32 C-14.25136719 32.68707031 -14.50273437 33.37414062 -14.76171875 34.08203125 C-16.18989035 37.44747032 -17.96260695 40.54354625 -19.8125 43.6875 C-23.10348505 49.35380896 -26.16675453 55.08832436 -29 61 C-29.66 61 -30.32 61 -31 61 C-31.268125 61.9075 -31.53625 62.815 -31.8125 63.75 C-32.90131632 66.72991834 -33.86391101 68.68590359 -36 71 C-36.66 71 -37.32 71 -38 71 C-37.46944925 66.4344048 -36.31595135 63.33575274 -33.9296875 59.421875 C-33.28733154 58.35533691 -32.64497559 57.28879883 -31.9831543 56.18994141 C-31.28043824 55.04329302 -30.57772009 53.89664592 -29.875 52.75 C-28.78862965 50.95335466 -27.70591396 49.15454241 -26.6235199 47.35549927 C-25.87808339 46.11666877 -25.13162166 44.87845464 -24.38417053 43.64083862 C-20.39244597 37.022146 -16.53475106 30.32838468 -12.6875 23.625 C-11.46243661 21.49207432 -10.23719024 19.35925373 -9.01171875 17.2265625 C-8.50084717 16.33533691 -7.98997559 15.44411133 -7.46362305 14.52587891 C-6.44874189 12.77442595 -5.41663573 11.03288487 -4.37109375 9.29956055 C-3.17263545 7.28953941 -2.20163555 5.34682918 -1.3125 3.1875 C-0.879375 2.135625 -0.44625 1.08375 0 0 Z " fill="#F2F2F2" transform="translate(183,64)"/>
<path d="M0 0 C1.0003981 0.16076523 2.0007962 0.32153046 3.0315094 0.48716736 C6.86034219 1.03159834 10.6262758 1.1583777 14.49584961 1.20532227 C15.20888245 1.21522186 15.92191528 1.22512146 16.65655518 1.23532104 C18.98845216 1.26664032 21.32036944 1.29157505 23.65234375 1.31640625 C25.27902219 1.3370014 26.90569559 1.3579985 28.53236389 1.37937927 C32.79509371 1.43433567 37.0578697 1.4838605 41.32067871 1.53222656 C45.67801986 1.5826357 50.03529472 1.63822001 54.39257812 1.69335938 C62.92832922 1.8006172 71.4641361 1.90213282 80 2 C80.495 3.485 80.495 3.485 81 5 C71.17731138 5.11589619 61.35478564 5.20471642 51.53155231 5.25906086 C46.97008918 5.28514488 42.40909413 5.32052062 37.84790039 5.37719727 C33.44529311 5.43156043 29.04313577 5.46142953 24.64021873 5.47438622 C22.96125391 5.48361845 21.28231347 5.50164732 19.60354042 5.52865028 C17.24988401 5.56499994 14.8980818 5.56994319 12.54418945 5.56762695 C11.50516983 5.59459152 11.50516983 5.59459152 10.44515991 5.62210083 C6.49137524 5.580056 5.08911499 5.07603839 2.02848816 2.46452332 C1.35908707 1.65123062 0.68968597 0.83793793 0 0 Z " fill="#FDFDFD" transform="translate(186,213)"/>
<path d="M0 0 C4.74235151 4.22311594 7.61190193 9.01722098 10.75 14.5 C11.29785156 15.44182129 11.84570312 16.38364258 12.41015625 17.35400391 C13.6168718 19.42863155 14.8204971 21.50505886 16.02148438 23.58300781 C19.28547659 29.22008025 22.58184276 34.83813999 25.87658691 40.45727539 C26.97775624 42.33702874 28.07655816 44.21814721 29.17480469 46.09960938 C32.36935339 51.56460359 35.55876799 57.01502852 39.05322266 62.2956543 C40.77825772 65.40098431 41.38879562 68.51613503 42 72 C40.2227831 73.7772169 37.847528 73.11988099 35.48136902 73.12442017 C34.29454277 73.11902725 34.29454277 73.11902725 33.08374023 73.11352539 C32.25454071 73.11367142 31.42534119 73.11381744 30.5710144 73.1139679 C27.81684802 73.11326851 25.06274839 73.10547493 22.30859375 73.09765625 C20.40430234 73.09579216 18.50001045 73.09436822 16.59571838 73.09336853 C11.57332037 73.08954263 6.55095108 73.07971173 1.52856445 73.06866455 C-3.5922812 73.05845198 -8.71313148 73.05387124 -13.83398438 73.04882812 C-23.88933557 73.03808953 -33.9446654 73.02101224 -44 73 C-44 72.67 -44 72.34 -44 72 C-16.61 72 10.78 72 39 72 C37.43100076 66.19878743 37.43100076 66.19878743 35.0390625 61.08203125 C34.6565332 60.39608887 34.27400391 59.71014648 33.87988281 59.00341797 C33.25871582 57.91891357 33.25871582 57.91891357 32.625 56.8125 C31.96516113 55.64291748 31.96516113 55.64291748 31.29199219 54.44970703 C27.55864315 47.87644884 23.6776886 41.3932708 19.76879883 34.92333984 C15.56258073 27.95950978 11.42229045 20.95865506 7.3125 13.9375 C6.69987305 12.89577637 6.08724609 11.85405273 5.45605469 10.78076172 C4.88918945 9.81025879 4.32232422 8.83975586 3.73828125 7.83984375 C3.23337158 6.97738037 2.72846191 6.11491699 2.20825195 5.22631836 C1 3 1 3 0 0 Z " fill="#070707" transform="translate(272,214)"/>
<path d="M0 0 C0.66 0 1.32 0 2 0 C1.40900262 4.27125467 -0.09586295 7.26022774 -2.2890625 10.953125 C-2.62460144 11.52269424 -2.96014038 12.09226349 -3.30584717 12.67909241 C-4.40496592 14.54047835 -5.51447187 16.39540196 -6.625 18.25 C-7.39057833 19.53774212 -8.1557102 20.82574976 -8.92041016 22.11401367 C-10.49340346 24.7616451 -12.07083815 27.40657052 -13.65039062 30.05029297 C-15.55390254 33.2418035 -17.4339296 36.44625576 -19.30276489 39.65817261 C-20.33512976 41.43102065 -21.37236903 43.20090849 -22.41162109 44.96972656 C-23.70339876 47.16905755 -24.98779863 49.37274141 -26.26416016 51.58105469 C-27.13500244 53.05106934 -27.13500244 53.05106934 -28.0234375 54.55078125 C-28.52794434 55.41356689 -29.03245117 56.27635254 -29.55224609 57.1652832 C-30.03000488 57.77073975 -30.50776367 58.37619629 -31 59 C-31.99 59 -32.98 59 -34 59 C-24.38297872 39.38297872 -24.38297872 39.38297872 -21 36 C-20.7525 35.154375 -20.505 34.30875 -20.25 33.4375 C-18.31778589 28.1239112 -15.03746187 23.73259592 -11.671875 19.21875 C-8.56839582 15.05458807 -6.29930315 10.75289473 -4.11328125 6.0390625 C-3 4 -3 4 -1 3 C-0.67 2.01 -0.34 1.02 0 0 Z " fill="#565656" transform="translate(172,221)"/>
<path d="M0 0 C4.02000667 2.84722227 5.93558713 5.27035728 7.9375 9.75 C10.11931882 14.37793013 12.50450966 18.20326928 15.68359375 22.1875 C17.68362418 24.94125109 18.76025166 27.83864174 20 31 C20.66 31.99 21.32 32.98 22 34 C22.1953125 36.48046875 22.1953125 36.48046875 22.125 39.1875 C22.10695312 40.08855469 22.08890625 40.98960937 22.0703125 41.91796875 C22.04710937 42.60503906 22.02390625 43.29210937 22 44 C18.83367598 40.99360852 16.68149912 37.52809398 14.4375 33.8125 C14.03853516 33.17763672 13.63957031 32.54277344 13.22851562 31.88867188 C10.47330676 27.33958746 9.07227439 23.21067392 8 18 C8.66 18.33 9.32 18.66 10 19 C10 19.66 10 20.32 10 21 C10.66 21 11.32 21 12 21 C11.505 20.401875 11.01 19.80375 10.5 19.1875 C9 17 9 17 9 14 C8.34 14 7.68 14 7 14 C6.67 14.66 6.34 15.32 6 16 C5.49166409 14.75336669 4.99368855 13.50250613 4.5 12.25 C4.2215625 11.55390625 3.943125 10.8578125 3.65625 10.140625 C3 8 3 8 3 4 C2.34 4 1.68 4 1 4 C0.67 4.66 0.34 5.32 0 6 C-1 3 -1 3 0 0 Z " fill="#414141" transform="translate(151,151)"/>
<path d="M0 0 C0 0.99 0 1.98 0 3 C-2.47661304 5.47661304 -3.88330446 5.23492217 -7.26228333 5.24884033 C-7.99380112 5.24164978 -8.72531891 5.23445923 -9.47900391 5.22705078 C-10.24982803 5.22734283 -11.02065216 5.22763489 -11.81483459 5.22793579 C-14.36885745 5.22653974 -16.92259046 5.21096579 -19.4765625 5.1953125 C-21.24490194 5.19158334 -23.01324345 5.18873591 -24.78158569 5.18673706 C-29.44069095 5.17909293 -34.09967194 5.15943778 -38.75872803 5.1373291 C-43.51100992 5.11688744 -48.26331184 5.10773894 -53.015625 5.09765625 C-62.34380466 5.07619259 -71.67189201 5.04204728 -81 5 C-80.67 4.34 -80.34 3.68 -80 3 C-79.04199997 2.99191315 -78.08399994 2.98382629 -77.0969696 2.97549438 C-68.07678874 2.89807127 -59.05675943 2.81034178 -50.03677654 2.71247292 C-45.39930409 2.66248787 -40.76185467 2.61615807 -36.12426758 2.578125 C-31.65027542 2.54130003 -27.17647489 2.49494777 -22.70264626 2.44193649 C-20.99422371 2.42337768 -19.28576007 2.40827523 -17.57727623 2.39665604 C-15.18762894 2.37981888 -12.79842192 2.35079052 -10.40893555 2.31884766 C-9.69971451 2.31668747 -8.99049347 2.31452728 -8.25978088 2.31230164 C-4.62269386 2.2500291 -3.11443281 2.07628854 0 0 Z " fill="#B5B5B5" transform="translate(140,281)"/>
<path d="M0 0 C0.68896484 1.64282227 0.68896484 1.64282227 1 4 C-0.17724609 6.65600586 -0.17724609 6.65600586 -2.0234375 9.71484375 C-2.35638321 10.2747551 -2.68932892 10.83466644 -3.03236389 11.4115448 C-4.13526019 13.26057528 -5.25505843 15.09875284 -6.375 16.9375 C-7.14459787 18.22107148 -7.91289118 19.50542597 -8.67993164 20.79052734 C-10.28803147 23.48265458 -11.9018299 26.17124876 -13.51904297 28.85791016 C-15.99182023 32.97515298 -18.4254132 37.11458726 -20.84765625 41.26171875 C-21.42942627 42.25772346 -21.42942627 42.25772346 -22.02294922 43.27384949 C-22.78780477 44.58399743 -23.55247683 45.89425251 -24.31695557 47.20462036 C-26.10306677 50.26564275 -27.89208606 53.32494576 -29.68359375 56.3828125 C-30.27712646 57.39746582 -30.87065918 58.41211914 -31.48217773 59.45751953 C-32.60383154 61.33638437 -33.78620235 63.17930353 -35 65 C-36.32 64.34 -37.64 63.68 -39 63 C-38.67 61.68 -38.34 60.36 -38 59 C-38 59.99 -38 60.98 -38 62 C-37.34 62 -36.68 62 -36 62 C-35.731875 61.46375 -35.46375 60.9275 -35.1875 60.375 C-33.79166667 57.58333333 -32.39583333 54.79166667 -31 52 C-30.34 52 -29.68 52 -29 52 C-28.73268066 51.12585449 -28.46536133 50.25170898 -28.18994141 49.35107422 C-27.03893206 46.10963919 -25.66829747 43.36232304 -23.9609375 40.3828125 C-23.38085938 39.36445312 -22.80078125 38.34609375 -22.203125 37.296875 C-21.59984375 36.25015625 -20.9965625 35.2034375 -20.375 34.125 C-19.76398438 33.05507812 -19.15296875 31.98515625 -18.5234375 30.8828125 C-17.0203689 28.25244245 -15.51243714 25.62499074 -14 23 C-13.34 23 -12.68 23 -12 23 C-11.76410156 22.18144531 -11.52820313 21.36289063 -11.28515625 20.51953125 C-9.7417803 16.29283905 -7.67792386 12.57727222 -5.4375 8.6875 C-5.02564453 7.95982422 -4.61378906 7.23214844 -4.18945312 6.48242188 C-1.15697714 1.15697714 -1.15697714 1.15697714 0 0 Z " fill="#D5D5D5" transform="translate(183,73)"/>
<path d="M0 0 C25.41 0 50.82 0 77 0 C77 0.66 77 1.32 77 2 C75.35 2.66 73.7 3.32 72 4 C72 3.34 72 2.68 72 2 C48.24 2 24.48 2 0 2 C0 1.34 0 0.68 0 0 Z " fill="#D9D9D9" transform="translate(102,213)"/>
<path d="M0 0 C3.34726719 1.11575573 3.62079748 1.51344622 5.25 4.4375 C5.8275 5.613125 6.405 6.78875 7 8 C6.67 8.66 6.34 9.32 6 10 C5.34 8.35 4.68 6.7 4 5 C-0.99745512 9.36358673 -3.82612594 14.54072142 -7 20.3125 C-8.01927443 22.14279609 -9.04008768 23.97223614 -10.0625 25.80078125 C-10.79533203 27.11296631 -10.79533203 27.11296631 -11.54296875 28.45166016 C-13.59267254 32.0365811 -15.77970043 35.51853763 -18 39 C-18.33 38.34 -18.66 37.68 -19 37 C-18.36474424 35.32110979 -17.69313908 33.65583225 -17 32 C-16.90847656 31.2884375 -16.81695312 30.576875 -16.72265625 29.84375 C-15.67350926 25.71521482 -13.51821302 22.42886202 -11.3125 18.8125 C-10.86277832 18.06234619 -10.41305664 17.31219238 -9.94970703 16.53930664 C-8.63926024 14.35577761 -7.31997451 12.17777741 -6 10 C-4.79103789 7.97954277 -3.58256355 5.95879342 -2.375 3.9375 C-1.58414714 2.62450948 -0.79286671 1.31177541 0 0 Z " fill="#0A0A0A" transform="translate(183,214)"/>
<path d="M0 0 C0.66 0 1.32 0 2 0 C0.64980645 4.59758214 -1.29025844 8.46059957 -3.8125 12.5 C-4.62334671 13.82493938 -5.43317915 15.15049982 -6.2421875 16.4765625 C-6.90299316 17.55599121 -6.90299316 17.55599121 -7.57714844 18.65722656 C-10.23823803 23.03880099 -12.83331647 27.4594596 -15.4375 31.875 C-16.26447388 33.27032959 -16.26447388 33.27032959 -17.1081543 34.69384766 C-19.75910153 39.17143583 -22.38524775 43.65946983 -24.94921875 48.1875 C-25.40304932 48.98172363 -25.85687988 49.77594727 -26.32446289 50.59423828 C-27.17286918 52.08209477 -28.01235495 53.57508401 -28.84155273 55.07373047 C-29.81128007 56.7662165 -30.89546615 58.39224223 -32 60 C-32.99 60 -33.98 60 -35 60 C-33.51992977 56.92655273 -31.84305464 54.03369232 -30.0625 51.125 C-27.86113331 47.48633321 -25.86703549 43.82297743 -24 40 C-22.21084418 36.84767784 -20.22820557 33.86697197 -18.1875 30.875 C-15.28442973 26.56001466 -12.81914541 22.08062686 -10.37109375 17.49609375 C-8.74813397 14.54147467 -6.88322511 11.79446307 -5 9 C-3.28992778 6.02339014 -1.63627239 3.01771547 0 0 Z " fill="#D5D5D5" transform="translate(99,219)"/>
<path d="M0 0 C0.33 0.66 0.66 1.32 1 2 C29.38 2 57.76 2 87 2 C87.495 5.465 87.495 5.465 88 9 C88.47198357 10.6605018 88.98665061 12.31009956 89.5625 13.9375 C89.83191406 14.70964844 90.10132813 15.48179687 90.37890625 16.27734375 C90.58386719 16.84582031 90.78882813 17.41429687 91 18 C87.74006022 15.82670681 86.66762322 14.49406769 85 11 C84.8125 7.6875 84.8125 7.6875 85 5 C84.34 5 83.68 5 83 5 C83 4.34 83 3.68 83 3 C56.6 3.33 30.2 3.66 3 4 C4.65 5.65 6.3 7.3 8 9 C5.625 8.8125 5.625 8.8125 3 8 C1.6875 5.4375 1.6875 5.4375 1 3 C0.34 3 -0.32 3 -1 3 C-0.67 2.01 -0.34 1.02 0 0 Z " fill="#7A7A7A" transform="translate(184,210)"/>
<path d="M0 0 C0.66 0.33 1.32 0.66 2 1 C2.99 0.67 3.98 0.34 5 0 C3.83487012 4.34275682 2.08400415 7.40496112 -0.59765625 10.98828125 C-2.1461794 13.20970025 -3.41185197 15.48632196 -4.6875 17.875 C-7.26276968 22.69622099 -9.97018871 27.42012793 -12.75 32.125 C-13.17321533 32.84139648 -13.59643066 33.55779297 -14.0324707 34.29589844 C-14.90757804 35.77566413 -15.78315422 37.25515266 -16.65917969 38.734375 C-18.90403344 42.52757289 -21.13948261 46.32629497 -23.375 50.125 C-23.98166504 51.15391357 -23.98166504 51.15391357 -24.60058594 52.20361328 C-27.10121777 56.45010672 -29.56337767 60.7164402 -32 65 C-32.66 64.34 -33.32 63.68 -34 63 C-33.62415771 62.37883301 -33.24831543 61.75766602 -32.86108398 61.11767578 C-25.40737791 48.78384861 -18.02483821 36.41401094 -10.8125 23.9375 C-10.18980225 22.86322754 -9.56710449 21.78895508 -8.92553711 20.68212891 C-5.76708043 15.19823414 -2.75623009 9.69712076 0 4 C-0.66 4 -1.32 4 -2 4 C-2.33 5.32 -2.66 6.64 -3 8 C-3.33 7.34 -3.66 6.68 -4 6 C-1.68421053 1.68421053 -1.68421053 1.68421053 0 0 Z " fill="#888888" transform="translate(174,217)"/>
<path d="M0 0 C0.25523437 0.53882813 0.51046875 1.07765625 0.7734375 1.6328125 C2.2485057 4.47960017 3.92375845 7.15708023 5.625 9.875 C9.93888976 16.8107627 13.9895027 23.88563378 18 31 C17.01 31.33 16.02 31.66 15 32 C14.34 31.67 13.68 31.34 13 31 C12.375 28.4375 12.375 28.4375 12 26 C11.01 25.67 10.02 25.34 9 25 C3.81430598 18.77391596 0.12836909 9.99261439 -1 2 C-0.67 1.34 -0.34 0.68 0 0 Z " fill="#4F4F4F" transform="translate(271,212)"/>
<path d="M0 0 C1.80859375 0.015625 1.80859375 0.015625 4 1 C5.5298011 3.24331678 6.80804644 5.36194582 8.0625 7.75 C8.74052709 8.99498688 9.41890663 10.23978189 10.09765625 11.484375 C10.72542969 12.64453125 11.35320312 13.8046875 12 15 C12.58265625 15.91652344 13.1653125 16.83304688 13.765625 17.77734375 C15 20 15 20 14.6875 22.8125 C14.460625 23.534375 14.23375 24.25625 14 25 C10.96671858 23.48335929 10.36182999 20.84426998 9.0625 17.8125 C8.06565448 15.65604893 8.06565448 15.65604893 5 15 C1.98928321 10.4383079 0.29513786 6.28847958 -1 1 C-0.67 0.67 -0.34 0.34 0 0 Z " fill="#5D5D5D" transform="translate(189,218)"/>
<path d="M0 0 C0.66 1.32 1.32 2.64 2 4 C2.66 3.67 3.32 3.34 4 3 C4.33 4.98 4.66 6.96 5 9 C6.32 9 7.64 9 9 9 C11.6483087 12.41757932 12.72823707 15.96496521 13.75 20.125 C14.01296875 21.15882813 14.2759375 22.19265625 14.546875 23.2578125 C15 26 15 26 14 29 C11.83238631 25.35970083 9.67826929 21.71186055 7.53637695 18.05639648 C6.80567594 16.81366903 6.07131342 15.573087 5.33325195 14.3347168 C4.2736845 12.55547004 3.22747457 10.76895237 2.18359375 8.98046875 C1.54993896 7.90692139 0.91628418 6.83337402 0.26342773 5.72729492 C-1 3 -1 3 0 0 Z " fill="#4E4E4E" transform="translate(197,233)"/>
<path d="M0 0 C0.99 0.33 1.98 0.66 3 1 C3.33 2.65 3.66 4.3 4 6 C4.886875 5.979375 5.77375 5.95875 6.6875 5.9375 C10.49767056 7.15963018 10.87715508 7.79190597 12.8125 11.125 C14.78482424 15.09477362 15.58957295 18.56738784 16 23 C16.58534566 25.36461065 17.28655441 27.66941108 18 30 C14.82659177 27.88439452 14.4969604 27.34839189 13.1875 24 C10.7584613 18.22636186 7.8952287 11.86009243 3.390625 7.41015625 C1.30073658 5.29091547 0.81199328 2.81074599 0 0 Z " fill="#676767" transform="translate(199,96)"/>
<path d="M0 0 C0.99 0.99 1.98 1.98 3 3 C2.67 3.66 2.34 4.32 2 5 C-26.05 5 -54.1 5 -83 5 C-83 4.67 -83 4.34 -83 4 C-55.61 4 -28.22 4 0 4 C0 2.68 0 1.36 0 0 Z " fill="#1A1A1A" transform="translate(311,282)"/>
<path d="M0 0 C0.495 1.485 0.495 1.485 1 3 C-0.61569734 5.56958151 -1.68858958 7.15751094 -4 9 C-7.41059875 9.7215271 -7.41059875 9.7215271 -11.3605957 9.68115234 C-12.08309006 9.6820285 -12.80558441 9.68290466 -13.54997253 9.68380737 C-15.92636122 9.67964342 -18.29988899 9.63305673 -20.67578125 9.5859375 C-22.32771767 9.5747409 -23.97967407 9.5662029 -25.63163757 9.56021118 C-29.97062603 9.53734878 -34.30840117 9.47844959 -38.64691162 9.4119873 C-43.07759183 9.35050785 -47.50846893 9.32318419 -51.93945312 9.29296875 C-60.62685767 9.22870229 -69.31327772 9.12635614 -78 9 C-78 8.67 -78 8.34 -78 8 C-53.91 7.67 -29.82 7.34 -5 7 C-4.34 5.35 -3.68 3.7 -3 2 C-2.01 2 -1.02 2 0 2 C0 1.34 0 0.68 0 0 Z " fill="#A1A1A1" transform="translate(141,271)"/>
<path d="M0 0 C0.66 1.32 1.32 2.64 2 4 C2.99 3.67 3.98 3.34 5 3 C5 4.98 5 6.96 5 9 C5.99 8.67 6.98 8.34 8 8 C9.61064629 11.65079826 10.44894091 15.0507432 11 19 C11.99 18.67 12.98 18.34 14 18 C17 22.75 17 22.75 17 25 C16.34 25 15.68 25 15 25 C15 25.99 15 26.98 15 28 C10.72518862 24.10039712 8.17380174 18.92959261 5.25 14 C4.63511719 12.989375 4.02023438 11.97875 3.38671875 10.9375 C2.81050781 9.968125 2.23429688 8.99875 1.640625 8 C1.10985352 7.113125 0.57908203 6.22625 0.03222656 5.3125 C-1 3 -1 3 0 0 Z " fill="#333333" transform="translate(146,147)"/>
<path d="M0 0 C4.02000667 2.84722227 5.93558713 5.27035728 7.9375 9.75 C10.12018865 14.37977516 12.5118302 18.20369362 15.68359375 22.1953125 C17.70586383 24.96768276 18.78929533 27.79163261 20 31 C20.391875 31.969375 20.78375 32.93875 21.1875 33.9375 C21.455625 34.618125 21.72375 35.29875 22 36 C19 35 19 35 17.125 31.5 C16.79113281 30.78328125 16.45726562 30.0665625 16.11328125 29.328125 C14.59213254 26.14705612 12.82121291 23.12567919 11.05078125 20.078125 C10.02509598 18.04963221 9.45487278 16.21937926 9 14 C8.34 14 7.68 14 7 14 C6.67 14.66 6.34 15.32 6 16 C5.49166409 14.75336669 4.99368855 13.50250613 4.5 12.25 C4.2215625 11.55390625 3.943125 10.8578125 3.65625 10.140625 C3 8 3 8 3 4 C2.34 4 1.68 4 1 4 C0.67 4.66 0.34 5.32 0 6 C-1 3 -1 3 0 0 Z " fill="#636363" transform="translate(151,151)"/>
<path d="M0 0 C25.08 0.33 50.16 0.66 76 1 C76 1.33 76 1.66 76 2 C75.0795842 2.01030746 74.1591684 2.02061493 73.21086121 2.03123474 C64.54392274 2.12914415 55.87705351 2.2316493 47.21023083 2.33933926 C42.75435549 2.39454319 38.29847356 2.44795919 33.8425293 2.49731445 C29.54366116 2.54499527 25.24487297 2.59733949 20.94610023 2.65294075 C19.30464985 2.67334744 17.66317755 2.69206332 16.02168846 2.70907402 C13.72555996 2.73315533 11.42958233 2.76320477 9.13354492 2.79467773 C7.1716346 2.81799416 7.1716346 2.81799416 5.17008972 2.84178162 C1.97546802 2.85898568 1.97546802 2.85898568 -1 4 C-0.67 2.68 -0.34 1.36 0 0 Z " fill="#7B7B7B" transform="translate(228,282)"/>
<path d="M0 0 C0.99 0.33 1.98 0.66 3 1 C3.33 2.65 3.66 4.3 4 6 C4.94875 6.0825 5.8975 6.165 6.875 6.25 C10 7 10 7 11.3125 8.625 C12.20816326 11.71910945 12.56733361 14.80908538 13 18 C13.59287495 20.36230794 14.28667778 22.66981407 15 25 C11.78626268 22.85750846 11.41723896 22.16882621 10.0625 18.75 C8.41057989 14.82433433 6.47694564 11.48320481 4 8 C0 2.22222222 0 2.22222222 0 0 Z " fill="#636363" transform="translate(280,237)"/>
<path d="M0 0 C10.42167785 13.43594775 10.42167785 13.43594775 10.5625 20.125 C10 23 10 23 8 25 C7.86979167 23.01432292 7.73958333 21.02864583 7.609375 19.04296875 C6.78859528 16.29125213 5.27843716 15.6801883 3 14 C1.69921875 11.66015625 1.69921875 11.66015625 0.6875 9.0625 C0.34074219 8.20785156 -0.00601563 7.35320312 -0.36328125 6.47265625 C-1.04112057 3.84031093 -0.90786008 2.52443674 0 0 Z " fill="#4D4D4D" transform="translate(214,113)"/>
<path d="M0 0 C6 7.2 6 7.2 6 12 C6.66 12 7.32 12 8 12 C8.33 13.65 8.66 15.3 9 17 C9.66 17 10.32 17 11 17 C11.66 19.64 12.32 22.28 13 25 C9.49471437 22.66314291 8.82877496 21.0168039 7.0625 17.25 C5.42906112 13.84055277 3.87070296 10.6073855 1.625 7.5625 C-0.16330218 4.74248502 -0.38520646 3.27425489 0 0 Z " fill="#A7A7A7" transform="translate(168,174)"/>
<path d="M0 0 C1.08712744 3.26138232 1.08183705 3.88341242 0 7 C-0.97764934 8.93904966 -2.00215114 10.85490842 -3.0625 12.75 C-3.61035156 13.73484375 -4.15820312 14.7196875 -4.72265625 15.734375 C-5.14417969 16.48203125 -5.56570312 17.2296875 -6 18 C-6.99 17.67 -7.98 17.34 -9 17 C-8.44064577 13.09142602 -7.32566703 10.59544795 -5.0625 7.375 C-4.53785156 6.61960938 -4.01320312 5.86421875 -3.47265625 5.0859375 C-2.98667969 4.39757812 -2.50070313 3.70921875 -2 3 C-1.34 2.01 -0.68 1.02 0 0 Z " fill="#5A5A5A" transform="translate(161,239)"/>
<path d="M0 0 C0.66 0.33 1.32 0.66 2 1 C-1.48848321 8.31097013 -5.01454885 15.5692552 -10 22 C-10.33 22 -10.66 22 -11 22 C-11 20.35 -11 18.7 -11 17 C-10.34 17 -9.68 17 -9 17 C-8.896875 16.278125 -8.79375 15.55625 -8.6875 14.8125 C-7.93206053 11.72206579 -6.84468685 9.58256159 -5 7 C-4.34 7 -3.68 7 -3 7 C-2.67 5.35 -2.34 3.7 -2 2 C-1.34 2 -0.68 2 0 2 C0 1.34 0 0.68 0 0 Z " fill="#A7A7A7" transform="translate(212,149)"/>
<path d="M0 0 C2.6343193 2.38343175 4.22042687 4.93913421 6 8 C6.66 8.969375 7.32 9.93875 8 10.9375 C13 18.59375 13 18.59375 13 22 C12.01 21.67 11.02 21.34 10 21 C9.32060826 19.00428677 8.65438441 17.00405227 8 15 C7.01 14.34 6.02 13.68 5 13 C4.01 13.495 4.01 13.495 3 14 C0.88838269 4.58997722 0.88838269 4.58997722 0 0 Z " fill="#575757" transform="translate(209,248)"/>
<path d="M0 0 C0.33 0.66 0.66 1.32 1 2 C-0.328125 4.56640625 -0.328125 4.56640625 -2.25 7.5625 C-2.87390625 8.55378906 -3.4978125 9.54507813 -4.140625 10.56640625 C-6 13 -6 13 -9 14 C-10.65 12.35 -12.3 10.7 -14 9 C-13.67 8.34 -13.34 7.68 -13 7 C-12.21625 7.165 -11.4325 7.33 -10.625 7.5 C-8.11791961 8.0623707 -8.11791961 8.0623707 -6 8 C-4.41544134 6.21276059 -4.41544134 6.21276059 -2.875 4 C-2.06675781 2.88625 -2.06675781 2.88625 -1.2421875 1.75 C-0.83226562 1.1725 -0.42234375 0.595 0 0 Z " fill="#404040" transform="translate(192,197)"/>
<path d="M0 0 C0.66 0.33 1.32 0.66 2 1 C-0.44082996 6.18676366 -3.19658388 11.11105385 -6.1875 16 C-6.54457031 16.5880542 -6.90164062 17.1761084 -7.26953125 17.78198242 C-8.15023892 19.20661952 -9.07143185 20.60608534 -10 22 C-10.33 22 -10.66 22 -11 22 C-11 20.35 -11 18.7 -11 17 C-10.34 17 -9.68 17 -9 17 C-9 16.01 -9 15.02 -9 14 C-8.34 14 -7.68 14 -7 14 C-6.7834375 12.824375 -6.7834375 12.824375 -6.5625 11.625 C-6 9 -6 9 -5 7 C-4.34 7 -3.68 7 -3 7 C-2.67 5.35 -2.34 3.7 -2 2 C-1.34 2 -0.68 2 0 2 C0 1.34 0 0.68 0 0 Z " fill="#A5A5A5" transform="translate(166,227)"/>
<path d="M0 0 C1.14082031 0.13921875 1.14082031 0.13921875 2.3046875 0.28125 C0.9846875 0.61125 -0.3353125 0.94125 -1.6953125 1.28125 C-1.77652344 2.12945312 -1.85773438 2.97765625 -1.94140625 3.8515625 C-2.81784308 7.83866889 -4.55406889 10.79163973 -6.7578125 14.15625 C-7.13486328 14.74921875 -7.51191406 15.3421875 -7.90039062 15.953125 C-8.82316046 17.40152322 -9.75801513 18.84221031 -10.6953125 20.28125 C-11.6953125 18.28125 -11.6953125 18.28125 -10.6328125 14.78125 C-4.88758875 0.51000926 -4.88758875 0.51000926 0 0 Z " fill="#434343" transform="translate(98.6953125,211.71875)"/>
<path d="M0 0 C3.4087928 1.3984791 4.87393835 2.85006933 6.75 6 C7.17796875 6.70125 7.6059375 7.4025 8.046875 8.125 C9 10 9 10 9 12 C8.34 12 7.68 12 7 12 C6.67 12.66 6.34 13.32 6 14 C2 8.5 2 8.5 2 4 C1.34 4 0.68 4 0 4 C0 2.68 0 1.36 0 0 Z " fill="#5B5B5B" transform="translate(142,138)"/>
<path d="M0 0 C0.96136276 2.59567945 1.0768013 3.7695961 0.1875 6.4375 C-0.204375 7.283125 -0.59625 8.12875 -1 9 C-1.37125 9.928125 -1.7425 10.85625 -2.125 11.8125 C-2.41375 12.534375 -2.7025 13.25625 -3 14 C-3.33 13.34 -3.66 12.68 -4 12 C-4.66 12 -5.32 12 -6 12 C-6.33 10.35 -6.66 8.7 -7 7 C-5.68 7 -4.36 7 -3 7 C-2.814375 5.824375 -2.814375 5.824375 -2.625 4.625 C-2 2 -2 2 0 0 Z " fill="#636363" transform="translate(188,193)"/>
<path d="M0 0 C2.65506759 1.32753379 3.13084371 2.82858939 4.5 5.4375 C5.87169243 8.04287923 6.90860425 9.90860425 9 12 C10.78936118 15.95150593 12.41026776 19.96452586 14 24 C11 23 11 23 9.125 19.5 C8.78984375 18.78070313 8.4546875 18.06140625 8.109375 17.3203125 C6.96827432 14.93364417 5.69557918 12.66659329 4.375 10.375 C2.47597998 7.00350907 1.05537366 3.74177933 0 0 Z " fill="#767676" transform="translate(159,163)"/>
<path d="M0 0 C0.66 1.32 1.32 2.64 2 4 C2.66 3.67 3.32 3.34 4 3 C4.33 4.98 4.66 6.96 5 9 C5.66 8.67 6.32 8.34 7 8 C9.125 14.625 9.125 14.625 8 18 C6.46648472 15.56969216 4.94816498 13.13194897 3.4375 10.6875 C2.78104492 9.65206055 2.78104492 9.65206055 2.11132812 8.59570312 C1.70205078 7.92861328 1.29277344 7.26152344 0.87109375 6.57421875 C0.29766235 5.65515747 0.29766235 5.65515747 -0.28735352 4.7175293 C-1 3 -1 3 0 0 Z " fill="#252525" transform="translate(197,233)"/>
<path d="M0 0 C0.33 0.66 0.66 1.32 1 2 C-0.40895236 4.61788643 -1.86243091 7.11045672 -3.4375 9.625 C-3.87126953 10.33140625 -4.30503906 11.0378125 -4.75195312 11.765625 C-5.82748132 13.51483568 -6.91283725 15.25799654 -8 17 C-8.33 16.34 -8.66 15.68 -9 15 C-8.36474424 13.32110979 -7.69313908 11.65583225 -7 10 C-6.896875 9.113125 -6.79375 8.22625 -6.6875 7.3125 C-6.460625 6.549375 -6.23375 5.78625 -6 5 C-3.5 3.875 -3.5 3.875 -1 3 C-0.67 2.01 -0.34 1.02 0 0 Z " fill="#050505" transform="translate(173,236)"/>
<path d="M0 0 C0.33 0.99 0.66 1.98 1 3 C-0.109375 5.0859375 -0.109375 5.0859375 -1.75 7.375 C-2.30429688 8.16519531 -2.85859375 8.95539063 -3.4296875 9.76953125 C-3.94789063 10.50558594 -4.46609375 11.24164063 -5 12 C-6.01488468 13.65764498 -7.02402398 15.31915242 -8 17 C-9 15 -9 15 -8.0625 11.875 C-7.711875 10.92625 -7.36125 9.9775 -7 9 C-6.34 9 -5.68 9 -5 9 C-4.7834375 7.824375 -4.7834375 7.824375 -4.5625 6.625 C-4 4 -4 4 -3 2 C-2.01 2 -1.02 2 0 2 C0 1.34 0 0.68 0 0 Z " fill="#A1A1A1" transform="translate(151,254)"/>
<path d="M0 0 C3.29345235 2.1956349 4.05099859 3.62672833 6 7 C7.35362053 8.76524783 8.71581828 10.51996929 10.109375 12.25390625 C11 14 11 14 10.640625 16.21484375 C10.42921875 16.80394531 10.2178125 17.39304688 10 18 C0 4.57142857 0 4.57142857 0 0 Z " fill="#B4B4B4" transform="translate(269,221)"/>
<path d="M0 0 C0.33 0.66 0.66 1.32 1 2 C-0.75705936 6.80879404 -2.9116618 10.91542367 -6 15 C-6.66 15 -7.32 15 -8 15 C-6.62712658 11.30123909 -4.93644547 8.0485524 -2.875 4.6875 C-2.33617188 3.80449219 -1.79734375 2.92148438 -1.2421875 2.01171875 C-0.83226563 1.34785156 -0.42234375 0.68398437 0 0 Z " fill="#343434" transform="translate(87,228)"/>
<path d="M0 0 C0.33 0.99 0.66 1.98 1 3 C-0.43359375 5.69921875 -0.43359375 5.69921875 -2.4375 8.6875 C-3.09621094 9.68136719 -3.75492188 10.67523438 -4.43359375 11.69921875 C-5.20896484 12.83810547 -5.20896484 12.83810547 -6 14 C-6.66 13.67 -7.32 13.34 -8 13 C-7.2368139 11.39218107 -6.46412942 9.78886862 -5.6875 8.1875 C-5.25824219 7.29417969 -4.82898438 6.40085938 -4.38671875 5.48046875 C-3.11778211 3.21068067 -1.93443102 1.70751829 0 0 Z " fill="#535353" transform="translate(212,155)"/>
<path d="M0 0 C4.62452592 5.37041719 4.62452592 5.37041719 5 9 C4.67 9.66 4.34 10.32 4 11 C3.34 11 2.68 11 2 11 C1.67 11.66 1.34 12.32 1 13 C1 11.02 1 9.04 1 7 C0.01 7.99 -0.98 8.98 -2 10 C-1.34 6.7 -0.68 3.4 0 0 Z " fill="#3F3F3F" transform="translate(224,130)"/>
<path d="M0 0 C3.3502463 3.81234923 5.16974789 7.33285711 7 12 C5.35 11.67 3.7 11.34 2 11 C1.47007308 9.54494642 0.9513211 8.08581873 0.4375 6.625 C0.14746094 5.81289062 -0.14257812 5.00078125 -0.44140625 4.1640625 C-1 2 -1 2 0 0 Z " fill="#494949" transform="translate(201,91)"/>
<path d="M0 0 C1.875 0.25 1.875 0.25 4 1 C5.72101535 3.58152302 6 4.84918025 6 8 C6.66 8 7.32 8 8 8 C8.66 10.64 9.32 13.28 10 16 C7.12268022 14.56134011 6.49371771 12.50689217 5 9.6875 C4.2265625 8.23923828 4.2265625 8.23923828 3.4375 6.76171875 C2.26952819 4.51781639 1.12047567 2.26788584 0 0 Z " fill="#A1A1A1" transform="translate(204,239)"/>
<path d="M0 0 C1 2 1 2 -0.125 5.8125 C-1.71575461 9.8744734 -3.72366297 12.16641122 -7 15 C-7 11.06025045 -5.52210525 9.17063907 -3.5 5.8125 C-2.8503125 4.72582031 -2.200625 3.63914062 -1.53125 2.51953125 C-1.0259375 1.68808594 -0.520625 0.85664062 0 0 Z " fill="#323232" transform="translate(168,87)"/>
<path d="M0 0 C0.99 0 1.98 0 3 0 C3.103125 0.969375 3.20625 1.93875 3.3125 2.9375 C3.94629879 7.48593839 5.44755827 11.69417104 7 16 C3.66278378 13.77518918 2.68488674 12.59953076 1 9 C0.47308221 6.00911428 0.19140741 3.02951735 0 0 Z " fill="#6E6E6E" transform="translate(268,212)"/>
<path d="M0 0 C2.475 0.495 2.475 0.495 5 1 C5.12375 1.845625 5.2475 2.69125 5.375 3.5625 C6.02770327 7.15236798 6.95247463 10.50824875 8 14 C4.77850891 11.85233927 4.30701844 10.99596154 2.875 7.5625 C2.54242188 6.78003906 2.20984375 5.99757813 1.8671875 5.19140625 C1.19051334 3.48143235 0.58154094 1.74462282 0 0 Z " fill="#676767" transform="translate(209,112)"/>
<path d="M0 0 C2.74277578 3.19990508 4.6302836 6.00499382 6 10 C4.68 10.33 3.36 10.66 2 11 C1.47007308 9.54494642 0.9513211 8.08581873 0.4375 6.625 C0.14746094 5.81289062 -0.14257812 5.00078125 -0.44140625 4.1640625 C-1 2 -1 2 0 0 Z " fill="#494949" transform="translate(292,249)"/>
<path d="M0 0 C3.79448125 2.35519526 5.20578369 4.9630133 7 9 C5.68 8.34 4.36 7.68 3 7 C2.34 7.66 1.68 8.32 1 9 C-1.125 3.375 -1.125 3.375 0 0 Z " fill="#5E5E5E" transform="translate(222,271)"/>
<path d="M0 0 C2.60813154 1.30406577 3.15628392 2.7146134 4.5625 5.25 C4.99691406 6.01828125 5.43132812 6.7865625 5.87890625 7.578125 C7.02900057 10.06264932 7.57462845 12.30438701 8 15 C3.37959546 11.9197303 1.57796586 7.31186343 0.25 2 C0.1675 1.34 0.085 0.68 0 0 Z " fill="#A3A3A3" transform="translate(204,105)"/>
<path d="M0 0 C2.97 1.98 2.97 1.98 6 4 C5.01 4.495 5.01 4.495 4 5 C3.67 5.99 3.34 6.98 3 8 C2.01 7.67 1.02 7.34 0 7 C-1.17755913 4.05610218 -1.03348696 3.10046087 0 0 Z " fill="#434343" transform="translate(224,277)"/>
<path d="M0 0 C0.66 1.32 1.32 2.64 2 4 C2.99 3.67 3.98 3.34 5 3 C4.979375 3.9075 4.95875 4.815 4.9375 5.75 C4.9889755 8.42672588 5.2215017 10.46988052 6 13 C2.70032335 10.19527484 0.91540896 6.83081791 -1 3 C-0.67 2.01 -0.34 1.02 0 0 Z " fill="#2A2A2A" transform="translate(217,267)"/>
<path d="M0 0 C0.66 0.33 1.32 0.66 2 1 C2.99 0.67 3.98 0.34 5 0 C4.34 1.98 3.68 3.96 3 6 C2.01 6 1.02 6 0 6 C0 5.34 0 4.68 0 4 C-0.66 4 -1.32 4 -2 4 C-2.33 5.32 -2.66 6.64 -3 8 C-3.33 7.34 -3.66 6.68 -4 6 C-1.68421053 1.68421053 -1.68421053 1.68421053 0 0 Z " fill="#727272" transform="translate(174,217)"/>
<path d="M0 0 C0.66 0 1.32 0 2 0 C2.33 1.65 2.66 3.3 3 5 C3.66 5 4.32 5 5 5 C5.66 7.64 6.32 10.28 7 13 C2.82229952 10.21486635 1.3309098 7.59438359 0.3125 2.6875 C0.209375 1.800625 0.10625 0.91375 0 0 Z " fill="#9F9F9F" transform="translate(174,186)"/>
<path d="M0 0 C0.66 1.32 1.32 2.64 2 4 C2.99 3.67 3.98 3.34 5 3 C4.979375 3.9075 4.95875 4.815 4.9375 5.75 C4.9889755 8.42672588 5.2215017 10.46988052 6 13 C2.70032335 10.19527484 0.91540896 6.83081791 -1 3 C-0.67 2.01 -0.34 1.02 0 0 Z " fill="#2A2A2A" transform="translate(146,147)"/>
<path d="M0 0 C2.74277578 3.19990508 4.6302836 6.00499382 6 10 C4.35 9.67 2.7 9.34 1 9 C-1.125 2.25 -1.125 2.25 0 0 Z " fill="#494949" transform="translate(208,103)"/>
<path d="M0 0 C1 3 1 3 0.109375 5.2265625 C-0.33921875 6.01804688 -0.7878125 6.80953125 -1.25 7.625 C-1.68828125 8.42164063 -2.1265625 9.21828125 -2.578125 10.0390625 C-4 12 -4 12 -7 13 C-5.35821735 8.22390502 -2.73453298 4.20617096 0 0 Z " fill="#4E4E4E" transform="translate(198,185)"/>
<path d="M0 0 C0.66 0.33 1.32 0.66 2 1 C0.43358249 5.30764815 -1.68336156 9.06171464 -4 13 C-4.33 13 -4.66 13 -5 13 C-5 11.35 -5 9.7 -5 8 C-4.34 8 -3.68 8 -3 8 C-2.67 6.35 -2.34 4.7 -2 3 C-1.34 3 -0.68 3 0 3 C0 2.01 0 1.02 0 0 Z " fill="#AAAAAA" transform="translate(193,180)"/>
<path d="M0 0 C1.9375 0.6875 1.9375 0.6875 4 2 C4.75 4.625 4.75 4.625 5 7 C5.66 7 6.32 7 7 7 C7.33 8.65 7.66 10.3 8 12 C3.79426049 9.4465153 2.18234959 6.28675812 0 2 C0 1.34 0 0.68 0 0 Z " fill="#A5A5A5" transform="translate(147,142)"/>
<path d="M0 0 C0.99 0.33 1.98 0.66 3 1 C0.03 5.95 0.03 5.95 -3 11 C-3.33 10.34 -3.66 9.68 -4 9 C-2.79149247 5.92379901 -1.47778215 2.9555643 0 0 Z " fill="#484848" transform="translate(78,243)"/>
<path d="M0 0 C0.66 1.32 1.32 2.64 2 4 C2.99 3.67 3.98 3.34 5 3 C5 5.64 5 8.28 5 11 C2.38114512 8.63055987 0.58133449 6.16266898 -1 3 C-0.67 2.01 -0.34 1.02 0 0 Z " fill="#2E2E2E" transform="translate(168,184)"/>
<path d="M0 0 C1 3 1 3 0.109375 5.2265625 C-0.33921875 6.01804688 -0.7878125 6.80953125 -1.25 7.625 C-1.68828125 8.42164063 -2.1265625 9.21828125 -2.578125 10.0390625 C-4 12 -4 12 -7 13 C-5.35821735 8.22390502 -2.73453298 4.20617096 0 0 Z " fill="#4D4D4D" transform="translate(224,141)"/>
<path d="M0 0 C2.475 0.495 2.475 0.495 5 1 C5.144375 1.9075 5.28875 2.815 5.4375 3.75 C5.86409473 6.21476956 6.35074221 8.58847107 7 11 C2.80541799 8.20361199 1.56525389 4.69576167 0 0 Z " fill="#5D5D5D" transform="translate(297,265)"/>
<path d="M0 0 C2.33881007 2.12619097 3.94038762 3.99776492 5 7 C4.625 9.75 4.625 9.75 4 12 C2 11 2 11 0.875 7.6875 C0 4 0 4 0 0 Z " fill="#5A5A5A" transform="translate(199,231)"/>
<path d="M0 0 C0.99 0 1.98 0 3 0 C4.40783184 2.62795276 5.50772334 5.04634002 6 8 C5.67 8.66 5.34 9.32 5 10 C4.16121545 8.71186658 3.32913217 7.41936744 2.5 6.125 C2.0359375 5.40570313 1.571875 4.68640625 1.09375 3.9453125 C0 2 0 2 0 0 Z " fill="#2B2B2B" transform="translate(190,224)"/>
<path d="M0 0 C3 0 3 0 6 1 C6 1.99 6 2.98 6 4 C6.66 4.66 7.32 5.32 8 6 C7.01 6.33 6.02 6.66 5 7 C3.29115995 5.37660195 1.62553283 3.70680947 0 2 C0 1.34 0 0.68 0 0 Z " fill="#3A3A3A" transform="translate(178,204)"/>
<path d="M0 0 C0.66 0 1.32 0 2 0 C5 4.38461538 5 4.38461538 5 7 C4.34 7 3.68 7 3 7 C3 7.99 3 8.98 3 10 C0.11192273 7.61419704 -0.61954948 5.70939253 -1 2 C-0.67 1.34 -0.34 0.68 0 0 Z " fill="#3A3A3A" transform="translate(158,165)"/>
<path d="M0 0 C1.4606285 2.64738916 2 3.89448334 2 7 C2.66 7 3.32 7 4 7 C4.33 8.98 4.66 10.96 5 13 C2.36950264 10.6200262 0.52891538 8.2107223 -1 5 C-0.6875 2.1875 -0.6875 2.1875 0 0 Z " fill="#212121" transform="translate(140,135)"/>
<path d="M0 0 C0.99 0.33 1.98 0.66 3 1 C2.34 2.32 1.68 3.64 1 5 C1.66 5 2.32 5 3 5 C2.34 6.32 1.68 7.64 1 9 C0.01 9 -0.98 9 -2 9 C-2 8.01 -2 7.02 -2 6 C-1.34 6 -0.68 6 0 6 C0 4.02 0 2.04 0 0 Z " fill="#4C4C4C" transform="translate(58,277)"/>
<path d="M0 0 C4.21976665 2.10988332 6.07582614 7.8767703 8 12 C8 12.66 8 13.32 8 14 C7.01 13.67 6.02 13.34 5 13 C4.27954236 11.0187415 3.61998741 9.01495907 3 7 C2.01120795 5.32665961 1.01351664 3.65848177 0 2 C0 1.34 0 0.68 0 0 Z " fill="#717171" transform="translate(214,256)"/>
<path d="M0 0 C0.99 0.33 1.98 0.66 3 1 C3.33 3.97 3.66 6.94 4 10 C-0.60921053 4.64736842 -0.60921053 4.64736842 -1 1 C-0.67 0.67 -0.34 0.34 0 0 Z " fill="#2C2C2C" transform="translate(208,252)"/>
<path d="M0 0 C0.33 0.66 0.66 1.32 1 2 C-0.21484375 4.3828125 -0.21484375 4.3828125 -1.9375 7.125 C-2.50339844 8.03507812 -3.06929687 8.94515625 -3.65234375 9.8828125 C-4.09707031 10.58148438 -4.54179687 11.28015625 -5 12 C-5.68359375 10.265625 -5.68359375 10.265625 -6 8 C-4.78515625 5.859375 -4.78515625 5.859375 -3.0625 3.75 C-2.49660156 3.04359375 -1.93070313 2.3371875 -1.34765625 1.609375 C-0.90292969 1.07828125 -0.45820313 0.5471875 0 0 Z " fill="#414141" transform="translate(162,248)"/>
<path d="M0 0 C0.33 0.66 0.66 1.32 1 2 C-0.21484375 4.3828125 -0.21484375 4.3828125 -1.9375 7.125 C-2.50339844 8.03507813 -3.06929687 8.94515625 -3.65234375 9.8828125 C-4.09707031 10.58148438 -4.54179687 11.28015625 -5 12 C-5.68359375 10.265625 -5.68359375 10.265625 -6 8 C-4.78515625 5.859375 -4.78515625 5.859375 -3.0625 3.75 C-2.49660156 3.04359375 -1.93070313 2.3371875 -1.34765625 1.609375 C-0.90292969 1.07828125 -0.45820313 0.5471875 0 0 Z " fill="#424242" transform="translate(205,175)"/>
<path d="M0 0 C0.33 0.99 0.66 1.98 1 3 C-0.9375 6.1875 -0.9375 6.1875 -3 9 C-3.66 8.67 -4.32 8.34 -5 8 C-3.8141763 4.62496331 -2.72426311 2.35277269 0 0 Z " fill="#545454" transform="translate(199,177)"/>
<path d="M0 0 C0.66 0 1.32 0 2 0 C2.33 1.65 2.66 3.3 3 5 C3.66 5 4.32 5 5 5 C5.33 6.65 5.66 8.3 6 10 C2.99203895 7.99469263 1.27992362 6.41312965 0 3 C0 2.01 0 1.02 0 0 Z " fill="#A9A9A9" transform="translate(220,264)"/>
<path d="M0 0 C0.33 0.66 0.66 1.32 1 2 C-0.25 5.5625 -0.25 5.5625 -2 9 C-2.99 9.33 -3.98 9.66 -5 10 C-3.66511872 6.40608886 -2.03977277 3.24509304 0 0 Z " fill="#2F2F2F" transform="translate(74,250)"/>
<path d="M0 0 C3.465 1.98 3.465 1.98 7 4 C7 4.66 7 5.32 7 6 C6.34 6 5.68 6 5 6 C4.67 6.66 4.34 7.32 4 8 C0 2.25 0 2.25 0 0 Z " fill="#545454" transform="translate(144,144)"/>
<path d="M0 0 C0.33 0.66 0.66 1.32 1 2 C-0.21484375 4.3828125 -0.21484375 4.3828125 -1.9375 7.125 C-2.50339844 8.03507812 -3.06929687 8.94515625 -3.65234375 9.8828125 C-4.09707031 10.58148438 -4.54179687 11.28015625 -5 12 C-5.33 11.34 -5.66 10.68 -6 10 C-5.06421005 7.64018187 -4.06652192 5.30368736 -3 3 C-2.34 3 -1.68 3 -1 3 C-0.67 2.01 -0.34 1.02 0 0 Z " fill="#030303" transform="translate(160,258)"/>
<path d="M0 0 C1.33333333 2.66666667 2.66666667 5.33333333 4 8 C3.01 9.485 3.01 9.485 2 11 C-1.07692308 5.70769231 -1.07692308 5.70769231 -0.6875 2.125 C-0.460625 1.42375 -0.23375 0.7225 0 0 Z " fill="#434343" transform="translate(271,212)"/>
<path d="M0 0 C0.99 0.66 1.98 1.32 3 2 C-0.75 5 -0.75 5 -3 5 C-4.36161311 5.96113866 -5.69855198 6.95884159 -7 8 C-6.3125 5.5625 -6.3125 5.5625 -5 3 C-2.375 2.1875 -2.375 2.1875 0 2 C0 1.34 0 0.68 0 0 Z " fill="#525252" transform="translate(182,212)"/>
<path d="M0 0 C0.33 0.66 0.66 1.32 1 2 C-0.73397418 5.65047197 -2.19333016 7.55609075 -6 9 C-4.68775452 5.06326356 -3.08089673 2.77280706 0 0 Z " fill="#0F0F0F" transform="translate(191,203)"/>
<path d="M0 0 C0.33 0.66 0.66 1.32 1 2 C-0.21484375 4.3828125 -0.21484375 4.3828125 -1.9375 7.125 C-2.50339844 8.03507813 -3.06929687 8.94515625 -3.65234375 9.8828125 C-4.09707031 10.58148438 -4.54179687 11.28015625 -5 12 C-5.33 11.34 -5.66 10.68 -6 10 C-5.06421005 7.64018187 -4.06652192 5.30368736 -3 3 C-2.34 3 -1.68 3 -1 3 C-0.67 2.01 -0.34 1.02 0 0 Z " fill="#030303" transform="translate(203,185)"/>
<path d="M0 0 C0.33 0.66 0.66 1.32 1 2 C-0.73397418 5.65047197 -2.19333016 7.55609075 -6 9 C-4.68775452 5.06326356 -3.08089673 2.77280706 0 0 Z " fill="#0F0F0F" transform="translate(227,142)"/>
<path d="M0 0 C0.66 0.99 1.32 1.98 2 3 C0.35 5.64 -1.3 8.28 -3 11 C-4 8 -4 8 -3.22265625 5.95703125 C-2.83980469 5.24933594 -2.45695313 4.54164063 -2.0625 3.8125 C-1.68222656 3.09707031 -1.30195313 2.38164062 -0.91015625 1.64453125 C-0.60980469 1.10183594 -0.30945313 0.55914062 0 0 Z " fill="#3B3B3B" transform="translate(180,215)"/>
<path d="M0 0 C0.99 0.33 1.98 0.66 3 1 C1.95125002 3.62187494 1.35068687 4.79371361 -1.125 6.25 C-1.74375 6.4975 -2.3625 6.745 -3 7 C-1.125 1.125 -1.125 1.125 0 0 Z " fill="#0F0F0F" transform="translate(183,214)"/>
<path d="M0 0 C2.91843445 2.626591 4.94517315 5.66976339 7 9 C7 9.66 7 10.32 7 11 C4 10 4 10 2.83203125 8.22265625 C2.49558594 7.50980469 2.15914062 6.79695312 1.8125 6.0625 C1.46832031 5.35222656 1.12414062 4.64195312 0.76953125 3.91015625 C0 2 0 2 0 0 Z " fill="#606060" transform="translate(166,176)"/>
<path d="M0 0 C0.99 0.33 1.98 0.66 3 1 C1.35 3.64 -0.3 6.28 -2 9 C-2.33 8.34 -2.66 7.68 -3 7 C-2.06421005 4.64018187 -1.06652192 2.30368736 0 0 Z " fill="#474747" transform="translate(171,82)"/>
<path d="M0 0 C0.33 0 0.66 0 1 0 C1.13277344 0.60328125 1.26554688 1.2065625 1.40234375 1.828125 C1.66724609 3.02695313 1.66724609 3.02695313 1.9375 4.25 C2.11152344 5.03890625 2.28554687 5.8278125 2.46484375 6.640625 C2.947556 8.76878703 3.46163178 10.88532842 4 13 C3.67 12.34 3.34 11.68 3 11 C2.01 11 1.02 11 0 11 C0 7.37 0 3.74 0 0 Z " fill="#A7A7A7" transform="translate(184,65)"/>
<path d="M0 0 C0.99 0.33 1.98 0.66 3 1 C3.33 3.64 3.66 6.28 4 9 C0.94117299 7.47058649 0.31048766 5.05780454 -1 2 C-0.67 1.34 -0.34 0.68 0 0 Z " fill="#4F4F4F" transform="translate(196,229)"/>
<path d="M0 0 C0.66 0.33 1.32 0.66 2 1 C2.75 3.4375 2.75 3.4375 3 6 C2.34 6.66 1.68 7.32 1 8 C0.34 7.34 -0.32 6.68 -1 6 C-0.625 2.875 -0.625 2.875 0 0 Z " fill="#525252" transform="translate(179,198)"/>
<path d="M0 0 C1.66666667 0 3.33333333 0 5 0 C4.67 2.31 4.34 4.62 4 7 C0 2.25 0 2.25 0 0 Z " fill="#2D2D2D" transform="translate(174,197)"/>
<path d="M0 0 C0.66 0.33 1.32 0.66 2 1 C0.35 3.64 -1.3 6.28 -3 9 C-4 7 -4 7 -3.1875 3.9375 C-2 1 -2 1 0 0 Z " fill="#525252" transform="translate(161,101)"/>
<path d="M0 0 C3.35661695 1.67830848 4.32506861 4.70789347 6 8 C5.67 8.66 5.34 9.32 5 10 C0.76169024 7.17446016 1.02284652 4.87819112 0 0 Z " fill="#9C9C9C" transform="translate(295,263)"/>
<path d="M0 0 C2.83680518 1.41840259 3.62592304 3.18641385 5 6 C4.6875 8.3125 4.6875 8.3125 4 10 C1.80902348 6.6659053 0.56545837 3.95820859 0 0 Z " fill="#A1A1A1" transform="translate(285,246)"/>
<path d="M0 0 C2.83680518 1.41840259 3.62592304 3.18641385 5 6 C4.6875 8.3125 4.6875 8.3125 4 10 C1.80902348 6.6659053 0.56545837 3.95820859 0 0 Z " fill="#A1A1A1" transform="translate(275,229)"/>
<path d="M0 0 C1.875 0.5 1.875 0.5 4 2 C4.98494554 4.65177645 5.45912382 7.20547307 6 10 C3.61405803 8.80702902 3.16265153 7.85642735 1.875 5.5625 C1.52179688 4.94503906 1.16859375 4.32757813 0.8046875 3.69140625 C0 2 0 2 0 0 Z " fill="#9F9F9F" transform="translate(198,228)"/>
<path d="M0 0 C0.66 0 1.32 0 2 0 C2.66 1.65 3.32 3.3 4 5 C2.68 5.33 1.36 5.66 0 6 C-1 3 -1 3 0 0 Z " fill="#4C4C4C" transform="translate(274,220)"/>
<path d="M0 0 C0.99 0.33 1.98 0.66 3 1 C3.33 3.31 3.66 5.62 4 8 C1.47411298 5.63707344 0.11179163 4.33537489 -1 1 C-0.67 0.67 -0.34 0.34 0 0 Z " fill="#4E4E4E" transform="translate(189,218)"/>
<path d="M0 0 C0.66 0.33 1.32 0.66 2 1 C-0.475 5.455 -0.475 5.455 -3 10 C-4 8 -4 8 -3.0625 4.875 C-2.5365625 3.451875 -2.5365625 3.451875 -2 2 C-1.34 2 -0.68 2 0 2 C0 1.34 0 0.68 0 0 Z " fill="#A1A1A1" transform="translate(212,149)"/>
<path d="M0 0 C2.83680518 1.41840259 3.62592304 3.18641385 5 6 C4.6875 8.3125 4.6875 8.3125 4 10 C1.80902348 6.6659053 0.56545837 3.95820859 0 0 Z " fill="#A1A1A1" transform="translate(194,88)"/>
<path d="M0 0 C0.66 0.99 1.32 1.98 2 3 C1.34 4.32 0.68 5.64 0 7 C-0.66 6.67 -1.32 6.34 -2 6 C-1.125 1.125 -1.125 1.125 0 0 Z " fill="#6A6A6A" transform="translate(154,250)"/>
<path d="M0 0 C1.40783184 2.62795276 2.50772334 5.04634002 3 8 C2.67 8.66 2.34 9.32 2 10 C-1.125 3.375 -1.125 3.375 0 0 Z " fill="#373737" transform="translate(203,241)"/>
<path d="M0 0 C1.98 0 3.96 0 6 0 C6 0.66 6 1.32 6 2 C4.35 2.66 2.7 3.32 1 4 C0.67 2.68 0.34 1.36 0 0 Z " fill="#C5C5C5" transform="translate(173,213)"/>
<path d="M0 0 C0.99 0 1.98 0 3 0 C1.375 5.75 1.375 5.75 -2 8 C-1.34 5.36 -0.68 2.72 0 0 Z " fill="#9B9B9B" transform="translate(197,173)"/>
<path d="M0 0 C1.32 0.66 2.64 1.32 4 2 C3.67 3.65 3.34 5.3 3 7 C0 3.375 0 3.375 0 0 Z " fill="#464646" transform="translate(183,62)"/>
</svg>
