<svg height="1682" width="2500" xmlns="http://www.w3.org/2000/svg" viewBox="2 2 496 332.43"><path d="M359.823 155.169s-20.605 5.954-60.462 30.446c-35.731 21.995-49.743 36.772-49.743 36.772l-110.234-76.183s46.376-34.103 85.125-7.983l51.98 35.657 6.34-4.17L139.407 69.226s20.612-5.961 60.447-30.439C235.607 16.785 249.618 2 249.618 2l110.228 76.183s-46.369 34.104-85.126 7.983l-51.98-35.664-6.34 4.162z" fill="#e20a17"/><g fill="#039"><path d="M274.45 259.096H190.55v18.657h40.526l-41.953 39.166v15.632h85.17v-18.732h-42.377l42.533-39.069zM141.153 334.43c33.553 0 42.146-8.57 42.146-27.466v-47.87h-26.581v45.008c0 7.56-6.467 12.064-15.565 12.064-9.463 0-15.55-4.526-15.55-12.183v-44.889H99.02v47.87c0 18.895 8.593 27.466 42.132 27.466M323.157 334.43c33.554 0 42.147-8.57 42.147-27.466v-47.87h-26.589v45.008c0 7.56-6.474 12.064-15.558 12.064-9.462 0-15.572-4.526-15.572-12.183v-44.889H281.01v47.87c0 18.895 8.593 27.466 42.146 27.466M498 259.096h-27.718v73.455H498zM466.059 259.096H429.59l-29.51 25.347v-25.347h-27.725v73.455h27.726v-26.054l27.406 26.054h37.24l-40.533-37.687zM33.502 279.392c0-5.679 8.414-5.865 11.254-5.865 2.847 0 9.262 1.138 13.625 8.296h31.346c0-13.84-13.12-24.85-44.874-24.85-35.271 0-41.277 15.476-41.277 24.367 0 16.39 12.696 21.192 40.303 24.135 2.364.245 16.724-.43 16.724 6.475 0 5.114-8.072 5.456-11.045 5.456-2.951 0-8.474-.484-13.038-8.608H2c0 16.13 10.875 25.451 47.506 25.451 33.74 0 42.696-13.774 42.696-24.247 0-10.169-6.98-20.516-35.746-24.195-11.997-1.554-22.954-2.208-22.954-6.415"/></g></svg>