<?xml version="1.0" encoding="UTF-8"?>
<svg version="1.1" xmlns="http://www.w3.org/2000/svg" width="156" height="156">
<path d="M0 0 C0.74139221 -0.00807175 1.48278442 -0.01614349 2.24664307 -0.02445984 C3.82032929 -0.03831759 5.39404579 -0.04903215 6.96777344 -0.05688477 C9.36712392 -0.07405061 11.76507954 -0.11791239 14.1640625 -0.16210938 C15.69269819 -0.17224029 17.22134562 -0.18075515 18.75 -0.1875 C19.46476501 -0.20500809 20.17953003 -0.22251617 20.91595459 -0.24055481 C24.54592463 -0.22487069 26.49638964 0.14469168 29.57128906 2.13989258 C33.18584108 5.80519161 32.88755504 9.14177669 32.953125 14.05078125 C32.98212891 14.76298828 33.01113281 15.47519531 33.04101562 16.20898438 C33.08542223 19.90156441 32.77233526 22.026253 30.80859375 25.1875 C27.00266597 28.78770195 23.44700093 28.36677089 18.41796875 28.37109375 C17.36604088 28.37252884 17.36604088 28.37252884 16.29286194 28.37399292 C14.81267202 28.37467258 13.33247909 28.3728332 11.85229492 28.36865234 C9.58310281 28.36329301 7.3141079 28.36860862 5.04492188 28.375 C3.6067704 28.37433934 2.16861904 28.37305842 0.73046875 28.37109375 C-0.58058838 28.36996582 -1.89164551 28.36883789 -3.24243164 28.36767578 C-6.359375 28.23828125 -6.359375 28.23828125 -8.359375 27.23828125 C-8.402096 25.5721622 -8.40001332 23.9044524 -8.359375 22.23828125 C-7.359375 21.23828125 -7.359375 21.23828125 -4.30834961 21.12475586 C-2.95946229 21.12491491 -1.61056886 21.13060513 -0.26171875 21.140625 C0.80156898 21.14274742 0.80156898 21.14274742 1.88633728 21.14491272 C4.15864212 21.15052682 6.43084975 21.16308162 8.703125 21.17578125 C10.24023296 21.18079444 11.77734245 21.18535766 13.31445312 21.18945312 C17.08988142 21.20050083 20.86523671 21.21777484 24.640625 21.23828125 C24.640625 20.24828125 24.640625 19.25828125 24.640625 18.23828125 C13.750625 17.90828125 2.860625 17.57828125 -8.359375 17.23828125 C-8.359375 15.25828125 -8.359375 13.27828125 -8.359375 11.23828125 C-5.38578051 9.751484 -2.69638321 10.1271552 0.6171875 10.140625 C1.64505875 10.14274742 1.64505875 10.14274742 2.69369507 10.14491272 C4.88438261 10.1505145 7.0749683 10.16306719 9.265625 10.17578125 C10.74999852 10.18079603 12.23437365 10.18535897 13.71875 10.18945312 C17.35940815 10.20048448 21.00000664 10.21775026 24.640625 10.23828125 C24.640625 9.24828125 24.640625 8.25828125 24.640625 7.23828125 C23.2477124 7.24613647 23.2477124 7.24613647 21.82666016 7.25415039 C18.38638695 7.27117718 14.94615841 7.28372398 11.50585938 7.29321289 C10.01594334 7.29824639 8.52603226 7.30507367 7.03613281 7.3137207 C4.89647196 7.3258293 2.75687632 7.33151932 0.6171875 7.3359375 C-0.67106934 7.34117432 -1.95932617 7.34641113 -3.28662109 7.35180664 C-6.359375 7.23828125 -6.359375 7.23828125 -8.359375 6.23828125 C-8.402096 4.5721622 -8.40001332 2.9044524 -8.359375 1.23828125 C-6.40260561 -0.71848814 -2.67380838 0.02732367 0 0 Z " fill="#A6A5A5" transform="translate(18.359375,63.76171875)"/>
<path d="M0 0 C4.1625612 -0.07453622 8.3247618 -0.12878254 12.48779297 -0.16479492 C13.90192437 -0.17981825 15.31600968 -0.20024305 16.72998047 -0.22631836 C18.77062397 -0.26298954 20.81064792 -0.27979036 22.8515625 -0.29296875 C24.07697754 -0.3086792 25.30239258 -0.32438965 26.56494141 -0.34057617 C31.66603183 0.16518226 34.88961406 1.76957234 38.3125 5.5625 C41.12679159 9.62758785 41.40924479 12.00721358 41 17 C39.52015703 21.13510406 37.78035472 23.50190124 34.0625 25.875 C27.20104976 28.39553274 20.54145052 28.18341815 13.3125 28.1875 C11.58290039 28.20586914 11.58290039 28.20586914 9.81835938 28.22460938 C8.71943359 28.22654297 7.62050781 28.22847656 6.48828125 28.23046875 C5.48321533 28.23457764 4.47814941 28.23868652 3.44262695 28.24291992 C1 28 1 28 -1 26 C-0.625 23.375 -0.625 23.375 0 21 C1.24088379 20.970271 1.24088379 20.970271 2.50683594 20.93994141 C6.25487806 20.84468788 10.00236317 20.73500891 13.75 20.625 C15.05195312 20.5940625 16.35390625 20.563125 17.6953125 20.53125 C19.57089844 20.47324219 19.57089844 20.47324219 21.484375 20.4140625 C23.21252441 20.36693115 23.21252441 20.36693115 24.97558594 20.31884766 C28.28789656 20.14853 28.28789656 20.14853 32 18 C32 14.7 32 11.4 32 8 C31.0713916 7.98018066 30.1427832 7.96036133 29.18603516 7.93994141 C25.7454948 7.86191387 22.30540109 7.77522538 18.86523438 7.68261719 C17.37541111 7.64430002 15.88549446 7.60945192 14.39550781 7.578125 C12.25551952 7.53253271 10.11617564 7.47453126 7.9765625 7.4140625 C6.68830566 7.3826416 5.40004883 7.3512207 4.07275391 7.31884766 C1 7 1 7 -1 5 C-0.625 2.375 -0.625 2.375 0 0 Z " fill="#CBCBCA" transform="translate(106,64)"/>
<path d="M0 0 C2.5 0.125 2.5 0.125 3.5 1.125 C3.57205511 2.81108966 3.58386068 4.50000659 3.5625 6.1875 C3.55347656 7.10660156 3.54445313 8.02570313 3.53515625 8.97265625 C3.52355469 9.68292969 3.51195312 10.39320312 3.5 11.125 C4.17546875 11.125 4.8509375 11.125 5.546875 11.125 C15.19791667 11.125 24.84895833 11.125 34.5 11.125 C34.48839844 10.41472656 34.47679687 9.70445313 34.46484375 8.97265625 C34.45582031 8.05355469 34.44679687 7.13445312 34.4375 6.1875 C34.42589844 5.27097656 34.41429687 4.35445313 34.40234375 3.41015625 C34.5 1.125 34.5 1.125 35.5 0.125 C38 0 38 0 40.5 0.125 C42.37077602 1.99577602 41.80246057 4.92930971 41.875 7.4375 C41.92398438 8.58863281 41.97296875 9.73976563 42.0234375 10.92578125 C41.5 14.125 41.5 14.125 39.37109375 16.52734375 C36.00016301 18.40314058 34.01374106 18.54318642 30.1875 18.375 C29.11886719 18.33890625 28.05023438 18.3028125 26.94921875 18.265625 C25.73685547 18.19601563 25.73685547 18.19601563 24.5 18.125 C24.40912109 19.08212891 24.40912109 19.08212891 24.31640625 20.05859375 C24.23261719 20.88488281 24.14882812 21.71117188 24.0625 22.5625 C23.98128906 23.38621094 23.90007812 24.20992187 23.81640625 25.05859375 C23.5 27.125 23.5 27.125 22.5 28.125 C20.0625 28.3125 20.0625 28.3125 17.5 28.125 C15.10236815 25.72736815 15.15719414 24.79226502 14.875 21.5 C14.80023438 20.68273437 14.72546875 19.86546875 14.6484375 19.0234375 C14.57496094 18.08371094 14.57496094 18.08371094 14.5 17.125 C14.17 17.455 13.84 17.785 13.5 18.125 C11.58885087 18.30380383 9.66898013 18.39303583 7.75 18.4375 C6.70328125 18.47488281 5.6565625 18.51226562 4.578125 18.55078125 C0.68160585 18.01179573 -0.89011996 17.05992004 -3.5 14.125 C-4.0234375 10.92578125 -4.0234375 10.92578125 -3.875 7.4375 C-3.84148438 6.27863281 -3.80796875 5.11976562 -3.7734375 3.92578125 C-3.40679748 0.17033987 -3.40679748 0.17033987 0 0 Z " fill="#B3B3B2" transform="translate(59.5,63.875)"/>
<path d="M0 0 C1.21876831 -0.0319043 1.21876831 -0.0319043 2.4621582 -0.06445312 C7.17063204 -0.09184219 10.13426623 0.26009653 14 3.25 C16.16803239 5.41803239 15.27788469 10.12962169 15.3125 13.125 C15.34150391 13.95386719 15.37050781 14.78273438 15.40039062 15.63671875 C15.40876953 16.43464844 15.41714844 17.23257813 15.42578125 18.0546875 C15.44036377 18.78671387 15.45494629 19.51874023 15.4699707 20.27294922 C15 22.25 15 22.25 13.28491211 23.99389648 C10.6180213 25.45998829 9.04154954 25.59832103 6.015625 25.54296875 C5.08105469 25.53330078 4.14648438 25.52363281 3.18359375 25.51367188 C2.21550781 25.48853516 1.24742188 25.46339844 0.25 25.4375 C-0.73355469 25.42396484 -1.71710937 25.41042969 -2.73046875 25.39648438 C-5.15420415 25.36118726 -7.57682145 25.31188054 -10 25.25 C-10.33 24.26 -10.66 23.27 -11 22.25 C-1.1 21.755 -1.1 21.755 9 21.25 C9.33 19.6 9.66 17.95 10 16.25 C9.17798096 16.22494385 8.35596191 16.1998877 7.5090332 16.17407227 C3.77670626 16.05787345 0.04461683 15.93525495 -3.6875 15.8125 C-4.98107422 15.77318359 -6.27464844 15.73386719 -7.60742188 15.69335938 C-8.85458984 15.65146484 -10.10175781 15.60957031 -11.38671875 15.56640625 C-12.53358154 15.52974854 -13.68044434 15.49309082 -14.86206055 15.45532227 C-17.66993278 15.27159702 -20.26225814 14.8800618 -23 14.25 C-23 13.26 -23 12.27 -23 11.25 C-12.44 10.92 -1.88 10.59 9 10.25 C9.33 8.6 9.66 6.95 10 5.25 C-0.89 4.92 -11.78 4.59 -23 4.25 C-23 3.26 -23 2.27 -23 1.25 C-15.33780968 0.47965412 -7.69764604 0.10084576 0 0 Z " fill="#FAFAFA" transform="translate(34,64.75)"/>
<path d="M0 0 C4.1625612 -0.07453622 8.3247618 -0.12878254 12.48779297 -0.16479492 C13.90192437 -0.17981825 15.31600968 -0.20024305 16.72998047 -0.22631836 C18.77062397 -0.26298954 20.81064792 -0.27979036 22.8515625 -0.29296875 C24.07697754 -0.3086792 25.30239258 -0.32438965 26.56494141 -0.34057617 C31.66603183 0.16518226 34.88961406 1.76957234 38.3125 5.5625 C41.11695765 9.61338327 41.33665377 12.03435686 41 17 C39.5 19.9375 39.5 19.9375 38 22 C38 20.23114962 38.0328955 18.46087927 38.140625 16.6953125 C38.31631111 12.56668892 38.37280555 9.74561109 36.5 6 C30.06586214 0.85268971 20.84495965 1.59066899 13 1.375 C11.84371094 1.33632812 10.68742187 1.29765625 9.49609375 1.2578125 C6.6642152 1.16419668 3.83233206 1.07846325 1 1 C1 2.32 1 3.64 1 5 C1.85231201 4.97905273 2.70462402 4.95810547 3.58276367 4.93652344 C6.76029433 4.86814756 9.93744871 4.81810262 13.11547852 4.78027344 C14.48800023 4.7602201 15.86043717 4.73296972 17.23266602 4.69824219 C19.21072044 4.64945448 21.18941119 4.62911124 23.16796875 4.609375 C24.35672607 4.58842773 25.5454834 4.56748047 26.77026367 4.54589844 C30.63689787 5.08954797 32.26675188 6.2642246 35 9 C35.62890625 11.21875 35.62890625 11.21875 35.5625 13.5 C35.56443359 14.62921875 35.56443359 14.62921875 35.56640625 15.78125 C34.77235203 18.89175206 33.5041694 20.0060958 31 22 C27.88378906 22.54589844 27.88378906 22.54589844 24.265625 22.609375 C22.97011719 22.64160156 21.67460938 22.67382812 20.33984375 22.70703125 C18.97656698 22.72177469 17.61328555 22.73609222 16.25 22.75 C14.87105624 22.77816814 13.49214725 22.80809678 12.11328125 22.83984375 C8.74212784 22.91056725 5.3716672 22.96325504 2 23 C1.67 23.99 1.34 24.98 1 26 C0.34 26 -0.32 26 -1 26 C-0.67 24.35 -0.34 22.7 0 21 C1.24088379 20.970271 1.24088379 20.970271 2.50683594 20.93994141 C6.25487806 20.84468788 10.00236317 20.73500891 13.75 20.625 C15.05195312 20.5940625 16.35390625 20.563125 17.6953125 20.53125 C19.57089844 20.47324219 19.57089844 20.47324219 21.484375 20.4140625 C23.21252441 20.36693115 23.21252441 20.36693115 24.97558594 20.31884766 C28.28789656 20.14853 28.28789656 20.14853 32 18 C32 14.7 32 11.4 32 8 C31.0713916 7.98018066 30.1427832 7.96036133 29.18603516 7.93994141 C25.7454948 7.86191387 22.30540109 7.77522538 18.86523438 7.68261719 C17.37541111 7.64430002 15.88549446 7.60945192 14.39550781 7.578125 C12.25551952 7.53253271 10.11617564 7.47453126 7.9765625 7.4140625 C6.68830566 7.3826416 5.40004883 7.3512207 4.07275391 7.31884766 C1 7 1 7 -1 5 C-0.625 2.375 -0.625 2.375 0 0 Z " fill="#B3B2B2" transform="translate(106,64)"/>
<path d="M0 0 C1.32 0.33 2.64 0.66 4 1 C4.08114106 2.77007714 4.13925505 4.54122098 4.1875 6.3125 C4.23970703 7.79169922 4.23970703 7.79169922 4.29296875 9.30078125 C4 12 4 12 2.96875 13.84375 C-0.10359531 15.64814328 -3.23678696 15.31315622 -6.6875 15.1875 C-7.7403418 15.16719727 -7.7403418 15.16719727 -8.81445312 15.14648438 C-10.54329829 15.11120182 -12.27174765 15.05739583 -14 15 C-14 18.3 -14 21.6 -14 25 C-15.65 25 -17.3 25 -19 25 C-19 20.71 -19 16.42 -19 12 C-17.17662109 11.90912109 -17.17662109 11.90912109 -15.31640625 11.81640625 C-13.73175772 11.73201668 -12.14712298 11.6473679 -10.5625 11.5625 C-9.76005859 11.52318359 -8.95761719 11.48386719 -8.13085938 11.44335938 C-4.24760439 11.5945704 -4.24760439 11.5945704 -1 10 C-0.76712992 8.31816052 -0.58735834 6.6287584 -0.4375 4.9375 C-0.35371094 4.01839844 -0.26992187 3.09929687 -0.18359375 2.15234375 C-0.09271484 1.08693359 -0.09271484 1.08693359 0 0 Z " fill="#FCFCFC" transform="translate(96,65)"/>
<path d="M0 0 C2.06242617 -0.02717692 4.12495703 -0.0464758 6.1875 -0.0625 C7.33605469 -0.07410156 8.48460937 -0.08570312 9.66796875 -0.09765625 C12.59300586 -0.01192832 15.16316291 0.32150977 18 1 C18 1.33 18 1.66 18 2 C23.94 2 29.88 2 36 2 C36.495 2.99 36.495 2.99 37 4 C33.42727882 5.19090706 30.54746816 5.12957177 26.77734375 5.1328125 C25.72541588 5.13424759 25.72541588 5.13424759 24.65223694 5.13571167 C23.17204702 5.13639133 21.69185409 5.13455195 20.21166992 5.13037109 C17.94247781 5.12501176 15.6734829 5.13032737 13.40429688 5.13671875 C11.9661454 5.13605809 10.52799404 5.13477717 9.08984375 5.1328125 C7.77878662 5.13168457 6.46772949 5.13055664 5.11694336 5.12939453 C2 5 2 5 0 4 C0 2.68 0 1.36 0 0 Z " fill="#C4C3C3" transform="translate(10,87)"/>
<path d="M0 0 C1.65 0 3.3 0 5 0 C5.06058594 0.71027344 5.12117188 1.42054687 5.18359375 2.15234375 C5.26738281 3.07144531 5.35117187 3.99054688 5.4375 4.9375 C5.51871094 5.85402344 5.59992187 6.77054687 5.68359375 7.71484375 C5.76044976 9.96159732 5.76044976 9.96159732 7 11 C8.68183948 11.23287008 10.3712416 11.41264166 12.0625 11.5625 C12.98160156 11.64628906 13.90070313 11.73007813 14.84765625 11.81640625 C15.55792969 11.87699219 16.26820312 11.93757813 17 12 C17 12.99 17 13.98 17 15 C14.91695462 15.05418326 12.83350232 15.09287551 10.75 15.125 C9.00976562 15.15980469 9.00976562 15.15980469 7.234375 15.1953125 C4 15 4 15 0 13 C0 8.71 0 4.42 0 0 Z " fill="#F3F3F3" transform="translate(56,65)"/>
<path d="M0 0 C8.07029553 -0.11547323 15.97667603 0.09958689 24 1 C24 1.33 24 1.66 24 2 C26.475 2.495 26.475 2.495 29 3 C29 3.33 29 3.66 29 4 C19.43 4 9.86 4 0 4 C0 2.68 0 1.36 0 0 Z " fill="#EFF0EF" transform="translate(107,65)"/>
<path d="M0 0 C3.10408807 -0.05807043 6.2080364 -0.09361914 9.3125 -0.125 C10.19357422 -0.14175781 11.07464844 -0.15851563 11.98242188 -0.17578125 C12.82998047 -0.18222656 13.67753906 -0.18867187 14.55078125 -0.1953125 C15.72120972 -0.21102295 15.72120972 -0.21102295 16.9152832 -0.22705078 C19 0 19 0 22 2 C24.27912938 2.45394552 24.27912938 2.45394552 26.6875 2.625 C27.49574219 2.69976562 28.30398437 2.77453125 29.13671875 2.8515625 C29.75160156 2.90054688 30.36648437 2.94953125 31 3 C31 3.33 31 3.66 31 4 C26.77084783 4.02908633 22.54172148 4.04682792 18.3125 4.0625 C17.11431641 4.07087891 15.91613281 4.07925781 14.68164062 4.08789062 C13.52470703 4.09111328 12.36777344 4.09433594 11.17578125 4.09765625 C10.11270752 4.10289307 9.04963379 4.10812988 7.9543457 4.11352539 C5.1865491 4.00716844 2.69207103 3.62894788 0 3 C0 2.01 0 1.02 0 0 Z " fill="#E4E5E4" transform="translate(11,76)"/>
<path d="M0 0 C3.57423953 -0.3324874 5.63583344 -0.18208328 8.875 1.4375 C11.57078436 4.68829879 11.55937722 6.6762982 11.56640625 10.78125 C10.77235203 13.89175206 9.5041694 15.0060958 7 17 C3.88378906 17.54589844 3.88378906 17.54589844 0.265625 17.609375 C-1.02988281 17.64160156 -2.32539062 17.67382812 -3.66015625 17.70703125 C-5.02343302 17.72177469 -6.38671445 17.73609222 -7.75 17.75 C-9.12894376 17.77816814 -10.50785275 17.80809678 -11.88671875 17.83984375 C-15.25787216 17.91056725 -18.6283328 17.96325504 -22 18 C-22.33 18.99 -22.66 19.98 -23 21 C-23.66 21 -24.32 21 -25 21 C-24.67 19.35 -24.34 17.7 -24 16 C-23.17274414 15.98018066 -22.34548828 15.96036133 -21.49316406 15.93994141 C-17.74512194 15.84468788 -13.99763683 15.73500891 -10.25 15.625 C-8.94804688 15.5940625 -7.64609375 15.563125 -6.3046875 15.53125 C-4.42910156 15.47324219 -4.42910156 15.47324219 -2.515625 15.4140625 C-1.36352539 15.3826416 -0.21142578 15.3512207 0.97558594 15.31884766 C4.28789656 15.14853 4.28789656 15.14853 8 13 C8 9.7 8 6.4 8 3 C5.36 2.34 2.72 1.68 0 1 C0 0.67 0 0.34 0 0 Z " fill="#8E8E8E" transform="translate(130,69)"/>
<path d="M0 0 C8.58 0 17.16 0 26 0 C25.67 0.99 25.34 1.98 25 3 C16.75 3 8.5 3 0 3 C0 2.01 0 1.02 0 0 Z " fill="#F4F5F4" transform="translate(107,87)"/>
<path d="M0 0 C0 0.33 0 0.66 0 1 C-1.12019531 1.04898438 -2.24039063 1.09796875 -3.39453125 1.1484375 C-4.86721203 1.22347856 -6.33986707 1.29902582 -7.8125 1.375 C-8.55048828 1.4059375 -9.28847656 1.436875 -10.04882812 1.46875 C-13.81893115 1.67346148 -15.79650741 1.86433827 -19 4 C-22.13671875 4.1953125 -22.13671875 4.1953125 -25.6875 4.125 C-26.86699219 4.10695313 -28.04648437 4.08890625 -29.26171875 4.0703125 C-30.16535156 4.04710938 -31.06898437 4.02390625 -32 4 C-32 3.01 -32 2.02 -32 1 C-21.31563078 -0.07419152 -10.72655709 -0.10194194 0 0 Z " fill="#E0E0E0" transform="translate(43,65)"/>
<path d="M0 0 C1.89575251 -0.02721176 3.79161979 -0.04649136 5.6875 -0.0625 C6.74324219 -0.07410156 7.79898437 -0.08570312 8.88671875 -0.09765625 C11.72410262 -0.00865425 14.2438919 0.35060162 17 1 C13.40537669 3.25998595 10.43404325 3.20868087 6.25 3.125 C5.07953125 3.10695313 3.9090625 3.08890625 2.703125 3.0703125 C1.36507813 3.03550781 1.36507813 3.03550781 0 3 C0 2.01 0 1.02 0 0 Z " fill="#D9D9D8" transform="translate(11,87)"/>
<path d="M0 0 C-3.52679099 2.35119399 -5.02879485 2.21443452 -9.1875 2.125 C-10.27417969 2.10695313 -11.36085938 2.08890625 -12.48046875 2.0703125 C-13.72763672 2.03550781 -13.72763672 2.03550781 -15 2 C-15.33 4.64 -15.66 7.28 -16 10 C-16.33 10 -16.66 10 -17 10 C-17 6.7 -17 3.4 -17 0 C-14.54203147 -0.19436491 -12.08390706 -0.3807742 -9.625 -0.5625 C-8.92632812 -0.61857422 -8.22765625 -0.67464844 -7.5078125 -0.73242188 C-2.2265625 -1.11328125 -2.2265625 -1.11328125 0 0 Z " fill="#B6B6B5" transform="translate(99,80)"/>
<path d="M0 0 C10.56 0 21.12 0 32 0 C32.495 2.475 32.495 2.475 33 5 C32.34 5 31.68 5 31 5 C31 4.01 31 3.02 31 2 C20.77 1.67 10.54 1.34 0 1 C0 0.67 0 0.34 0 0 Z " fill="#A7A7A7" transform="translate(12,80)"/>
<path d="M0 0 C3.57423953 -0.3324874 5.63583344 -0.18208328 8.875 1.4375 C11.59264895 4.7146649 11.524562 6.74184183 11.46875 10.87890625 C10.90678419 13.42180154 9.97297779 14.35760094 8 16 C7.34 15.67 6.68 15.34 6 15 C6.66 14.34 7.32 13.68 8 13 C8.24287489 10.55987051 8.24287489 10.55987051 8.125 7.875 C8.10695312 6.96492188 8.08890625 6.05484375 8.0703125 5.1171875 C8.04710937 4.41851562 8.02390625 3.71984375 8 3 C5.36 2.34 2.72 1.68 0 1 C0 0.67 0 0.34 0 0 Z " fill="#5D5C5B" transform="translate(130,69)"/>
<path d="M0 0 C13.95571489 -0.41248418 13.95571489 -0.41248418 19 2 C20.4375 5.125 20.4375 5.125 21 8 C18.5 6.625 18.5 6.625 16 5 C16 4.34 16 3.68 16 3 C13.69 3 11.38 3 9 3 C9 2.67 9 2.34 9 2 C6.03 1.67 3.06 1.34 0 1 C0 0.67 0 0.34 0 0 Z " fill="#DEDEDD" transform="translate(120,65)"/>
<path d="M0 0 C6.6 0 13.2 0 20 0 C20 0.33 20 0.66 20 1 C14.06 1.495 14.06 1.495 8 2 C8 2.33 8 2.66 8 3 C5.36 3 2.72 3 0 3 C0 2.01 0 1.02 0 0 Z " fill="#FDFDFD" transform="translate(107,87)"/>
<path d="M0 0 C5.65394631 -0.34615998 9.03006806 0.56574762 14 3 C14 3.33 14 3.66 14 4 C4.58997722 4.18451025 4.58997722 4.18451025 0 3 C0 2.01 0 1.02 0 0 Z " fill="#CDCDCC" transform="translate(11,76)"/>
<path d="M0 0 C10.55808656 -0.18451025 10.55808656 -0.18451025 15 1 C15 1.33 15 1.66 15 2 C9.63904667 3.12862175 4.44693314 3.09688221 -1 3 C-0.67 2.01 -0.34 1.02 0 0 Z " fill="#F1F2F1" transform="translate(25,66)"/>
<path d="M0 0 C3.63 0 7.26 0 11 0 C11.33 0.99 11.66 1.98 12 3 C8.04 3 4.08 3 0 3 C0 2.01 0 1.02 0 0 Z " fill="#FEFEFE" transform="translate(108,66)"/>
<path d="M0 0 C3.3 0 6.6 0 10 0 C9.67 0.99 9.34 1.98 9 3 C6.03 3 3.06 3 0 3 C0 2.01 0 1.02 0 0 Z " fill="#CFCFCE" transform="translate(11,66)"/>
</svg>
