<svg xmlns="http://www.w3.org/2000/svg" xml:space="preserve" version="1.0" viewBox="0 0 800 600"><path d="M399.7 459.4c171.7 0 311.6-71.1 311.6-159.5-.8-88.3-139.8-159.5-311.6-159.5-172.5 0-311.6 71.1-311.6 159.5s139.1 159.5 311.6 159.5m58.1-78.5c-4.9 12.3-13.9 37.6-34.3 48.2-6.5 3.3-13.9 4.9-20.4 4.9h-3.3c-57.2 0-111.2-8.2-155.4-21.3l-1.6-.8c-4.1-1.6-6.5-3.3-6.5-5.7 0-2.5.8-3.3 2.5-4.9l2.5-2.5c10.6-9 41.7-31.9 100.6-54 20.4-8.2 46.6-18 73.6-23.7 14.5-3.1 73.4-12.1 42.3 59.8m157.8-160.2c.8-1.6 2.5-3.3 4.9-4.1 1.6 0 3.3 0 6.5 2.5 36.8 22.9 58.1 50.7 58.1 81 0 54.8-70.3 102.2-171.7 122.7q-9.75 2.4-12.3 0c-.8-.8-1.6-2.5 0-4.9.8-.8 1.6-2.5 2.5-4.1 54.8-64.6 97.3-160.3 108.8-188.1 1.6-1.8 2.4-4.2 3.2-5m-273.9-2.5c4.9-12.3 13.9-37.6 34.3-48.2 6.5-2.5 14.7-4.1 21.3-4.1h3.3c57.2 0 111.2 8.2 155.4 21.3l1.6.8c4.1 1.6 6.5 3.3 6.5 5.7s-.8 3.3-2.5 4.9l-2.5 2.5c-10.6 9-41.7 31.1-99.8 54-20.4 8.2-46.6 18-73.6 23.7-16.2 2.4-75.1 11.4-44-60.6m-56.5-40.9q9.75-2.4 12.3 0c.8.8.8 2.5 0 4.9-.8.8-1.6 2.5-2.5 4.1-54.8 64.6-97.3 160.3-108.8 188.1-.8 1.6-1.6 4.1-2.5 4.9-.8 1.6-2.5 3.3-4.9 4.1-1.6 0-3.3 0-6.5-2.5-36.8-22.9-58.1-50.7-58.1-81-.7-54.7 70.5-102.1 171-122.6" style="fill:#003469"/></svg>