<?xml version="1.0" encoding="utf-8"?>
<!-- Generator: Adobe Illustrator 24.0.1, SVG Export Plug-In . SVG Version: 6.00 Build 0)  -->
<svg version="1.1" id="Layer_1" xmlns="http://www.w3.org/2000/svg" xmlns:xlink="http://www.w3.org/1999/xlink" x="0px" y="0px"
	 viewBox="0 0 170.08 170.08" style="enable-background:new 0 0 170.08 170.08;" xml:space="preserve">
<g>
	<path d="M87.56,33c0.09,0.05,0.2,0.05,0.3,0.05c0.59,0.01,1.19,0.03,1.78,0.06c1.14,0.06,2.28,0.15,3.42,0.27
		c1.25,0.12,2.5,0.29,3.74,0.48c3.05,0.48,6.06,1.17,9.01,2.08c3.47,1.07,6.82,2.44,10.04,4.13c2.9,1.53,5.63,3.3,8.17,5.37
		c1.2,0.98,2.36,2.01,3.44,3.12c2.74,2.8,5.05,5.91,6.76,9.46c1.29,2.68,2.17,5.48,2.59,8.43c0.15,1.01,0.23,2.03,0.27,3.05
		c0.14,3.33-0.37,6.58-1.4,9.74c-1.14,3.47-2.88,6.61-5.1,9.5c-0.75,0.98-1.55,1.92-2.4,2.82c-2.21,2.37-4.68,4.42-7.34,6.24
		c-2.66,1.83-5.49,3.36-8.44,4.67c-3.36,1.49-6.84,2.65-10.41,3.51c-2.35,0.57-4.72,1.01-7.11,1.3c-1.36,0.17-2.72,0.31-4.08,0.4
		c-0.99,0.06-1.97,0.1-2.96,0.14c-0.95,0.04-1.91,0.05-2.86,0.03c-1.29-0.03-2.58-0.07-3.86-0.17c-1.56-0.11-3.1-0.27-4.65-0.48
		c-1.94-0.26-3.85-0.61-5.76-1.05c-3.32-0.75-6.56-1.77-9.72-3.06c-3.57-1.46-6.97-3.26-10.15-5.45c-1.78-1.23-3.47-2.58-5.07-4.05
		c-2.29-2.12-4.32-4.47-6.03-7.08c-1.88-2.88-3.28-5.97-4.12-9.31c-0.36-1.42-0.6-2.85-0.72-4.31c-0.08-0.95-0.13-1.9-0.12-2.86
		c0.05-2.65,0.46-5.25,1.23-7.78c0.48-1.56,1.07-3.07,1.8-4.53c1.24-2.49,2.78-4.79,4.57-6.92c0.82-0.97,1.68-1.9,2.59-2.78
		c1.68-1.64,3.49-3.13,5.41-4.49c2.59-1.84,5.34-3.39,8.21-4.73c3.14-1.46,6.39-2.62,9.74-3.52c2.02-0.54,4.05-0.99,6.11-1.33
		c1.66-0.28,3.33-0.5,5-0.65c1.51-0.13,3.02-0.25,4.53-0.27c0.1,0,0.2,0,0.3-0.05C85.36,33,86.46,33,87.56,33z M77.01,83.75
		c0.08,0,0.16,0,0.23,0c5.63,0,11.27,0,16.9,0.01c0.28,0,0.44-0.09,0.57-0.35c0.86-1.76,1.73-3.52,2.61-5.28
		c1.54-3.1,3.07-6.19,4.61-9.29c1.45-2.91,2.89-5.83,4.34-8.74c1.84-3.7,3.68-7.39,5.51-11.1c0.14-0.28,0.31-0.39,0.62-0.39
		c1.2,0.01,2.4,0.01,3.6,0.01c1.25,0,2.49,0,3.74,0c0.11,0,0.24,0.04,0.35-0.07c-0.06-0.11-0.15-0.19-0.22-0.26
		c-0.37-0.36-0.74-0.72-1.13-1.06c-1.41-1.27-2.91-2.43-4.48-3.49c-2.26-1.52-4.64-2.82-7.13-3.92c-3.28-1.45-6.67-2.51-10.18-3.24
		c-2.27-0.47-4.55-0.78-6.86-0.96c-1.47-0.11-2.93-0.13-4.4-0.17c-0.3-0.01-0.6,0.04-0.91,0.04c-1.03,0.01-2.06,0.06-3.09,0.14
		c-1.61,0.12-3.22,0.31-4.81,0.57c-2.62,0.43-5.19,1.05-7.71,1.88c-3.33,1.09-6.51,2.51-9.52,4.3c-2.48,1.47-4.8,3.16-6.91,5.11
		c-1.22,1.13-2.38,2.32-3.44,3.6c-1.6,1.93-2.98,3.99-4.11,6.22c-0.8,1.59-1.46,3.23-1.96,4.93c-0.73,2.47-1.11,4.99-1.16,7.56
		c-0.01,0.64,0.01,1.28,0.05,1.92c0.05,1,0.15,1.99,0.31,2.98c0.47,2.9,1.38,5.66,2.69,8.29c0.97,1.95,2.15,3.79,3.49,5.51
		c0.1,0.13,0.19,0.28,0.33,0.38c0.13-0.09,0.17-0.22,0.22-0.34c1.33-2.68,2.66-5.37,3.99-8.05c1.49-3,2.98-6.01,4.47-9.01
		c1.45-2.91,2.89-5.83,4.34-8.74c2.28-4.58,4.56-9.16,6.82-13.75c0.15-0.3,0.33-0.39,0.65-0.39c5.78,0.01,11.56,0.01,17.34,0.01
		c0.46,0,0.47,0,0.31,0.45c-0.55,1.53-1.12,3.05-1.74,4.56c-1.08,2.63-2.27,5.2-3.6,7.71c-1.45,2.73-3.05,5.36-4.83,7.89
		c-1.65,2.33-3.44,4.54-5.41,6.61c-1.46,1.54-3.01,2.99-4.65,4.33c-2.62,2.14-5.42,3.99-8.47,5.46c-1.68,0.81-3.41,1.49-5.22,1.97
		c-0.13,0.03-0.26,0.08-0.39,0.12c0,0.01,0.01,0.03,0.01,0.04c0.09,0,0.18,0,0.27,0c6.24,0,12.48,0,18.72,0.01
		c0.3,0,0.46-0.09,0.6-0.36c1.11-2.27,2.24-4.53,3.37-6.78c3.73-7.47,7.46-14.94,11.19-22.4c0.61-1.22,1.22-2.45,1.83-3.68
		c0.93-1.88,1.87-3.76,2.8-5.64c0.09-0.18,0.21-0.28,0.42-0.27c0.09,0.01,0.18,0,0.27,0c5.11,0,10.21,0,15.32,0c0.07,0,0.13,0,0.2,0
		c0.35,0.01,0.38,0.05,0.27,0.37c-0.15,0.43-0.31,0.87-0.47,1.3c-1.24,3.31-2.65,6.55-4.32,9.67c-1.27,2.38-2.66,4.68-4.21,6.89
		c-1.49,2.11-3.11,4.12-4.88,6c-0.98,1.05-2.02,2.04-3.1,2.99c-1.31,1.15-2.67,2.22-4.11,3.21c-1.71,1.17-3.49,2.2-5.38,3.06
		C80.08,82.76,78.58,83.32,77.01,83.75z M52.17,92.35c0,0.14,0.1,0.19,0.17,0.25c0.25,0.24,0.51,0.47,0.77,0.71
		c1.26,1.15,2.61,2.19,4.02,3.16c2.24,1.55,4.61,2.87,7.09,3.99c3.48,1.58,7.1,2.72,10.84,3.48c1.89,0.38,3.8,0.66,5.72,0.83
		c1.63,0.15,3.27,0.23,4.9,0.24c0.64,0.01,1.28-0.02,1.92-0.04c1.39-0.04,2.78-0.14,4.16-0.28c1.5-0.15,2.98-0.37,4.46-0.66
		c2.85-0.55,5.63-1.32,8.35-2.33c3.13-1.17,6.12-2.64,8.93-4.46c2.86-1.85,5.47-3.98,7.78-6.49c1.23-1.34,2.37-2.76,3.38-4.27
		c1.66-2.5,2.96-5.17,3.84-8.05c0.7-2.29,1.1-4.63,1.2-7.01c0.08-1.91-0.03-3.81-0.34-5.7c-0.69-4.18-2.26-8.01-4.58-11.55
		c-0.04-0.06-0.07-0.15-0.16-0.15c-0.08,0.04-0.09,0.12-0.13,0.19c-0.64,1.43-1.3,2.86-2.03,4.25c-1.59,3.05-3.41,5.96-5.53,8.67
		c-1.68,2.15-3.52,4.16-5.58,5.96c-1.83,1.61-3.79,3.06-5.91,4.27c-1.97,1.12-4.01,2.06-6.2,2.65c-0.05,0.01-0.13,0-0.15,0.11
		c0.15,0,0.28,0,0.41,0c4.81,0,9.63,0,14.44,0c0.11,0,0.22,0,0.34,0c0.24,0.02,0.27,0.07,0.17,0.3c-0.02,0.05-0.05,0.1-0.07,0.15
		c-0.46,0.96-0.94,1.91-1.39,2.88c-0.13,0.27-0.28,0.42-0.59,0.37c-0.1-0.01-0.2,0-0.3,0c-5.4,0-10.79,0-16.19,0
		c-0.33,0-0.65,0.01-0.98,0c-0.26-0.01-0.41,0.07-0.53,0.32c-0.51,1.08-1.03,2.14-1.54,3.22c-0.28,0.58-0.23,0.51-0.8,0.51
		c-6.43,0-12.86,0-19.29,0c-0.11,0-0.22,0.01-0.34,0c-0.19-0.01-0.31,0.06-0.39,0.24c-0.58,1.22-1.17,2.43-1.75,3.64
		c-0.3,0.62-0.24,0.56-0.88,0.56c-5.61,0-11.22,0-16.83,0C52.45,92.31,52.31,92.28,52.17,92.35z"/>
	<path d="M121.36,137.08c0.27-0.73,0.6-1.43,0.9-2.14c1.13-2.65,2.27-5.3,3.41-7.95c1.34-3.12,2.68-6.25,4.03-9.37
		c0.36-0.84,1.06-1.25,1.92-1.42c0.7-0.14,1.36,0.03,2.01,0.28c0.62,0.24,1.18,0.59,1.73,0.97c2.8,1.97,5.59,3.95,8.38,5.92
		c2.55,1.81,5.11,3.62,7.66,5.44c0.45,0.32,0.89,0.32,1.35,0.07c0.5-0.26,0.81-0.7,1.07-1.18c0.29-0.54,0.53-1.12,0.77-1.68
		c1.25-2.98,2.44-5.98,3.62-8.99c0.25-0.65,0.14-0.57,0.84-0.57c3.23,0,6.46,0,9.7,0c0.17,0,0.34,0.01,0.5,0.01
		c0,0.04,0,0.09,0,0.13c-0.12,0.27-0.24,0.53-0.36,0.8c-0.7,1.52-1.4,3.03-2.09,4.55c-0.91,1.99-1.82,3.97-2.73,5.96
		c-0.73,1.59-1.46,3.18-2.19,4.77c-0.35,0.78-0.71,1.55-1.24,2.23c-0.6,0.78-1.29,1.43-2.19,1.84c-0.32,0.15-0.66,0.21-0.99,0.32
		c-0.4,0-0.81,0-1.21,0c-0.95-0.22-1.8-0.66-2.61-1.21c-2.79-1.89-5.55-3.8-8.32-5.71c-1.66-1.15-3.31-2.31-4.97-3.46
		c-1.13-0.79-2.26-1.58-3.4-2.36c-0.22-0.15-0.22-0.15-0.34,0.09c-0.03,0.06-0.05,0.12-0.08,0.18c-0.35,0.8-0.7,1.6-1.05,2.4
		c-1.16,2.65-2.32,5.3-3.48,7.95c-0.31,0.71-0.59,1.43-0.95,2.12C127.83,137.08,124.6,137.08,121.36,137.08z"/>
	<path d="M52.01,137.08c0.69-1.75,1.38-3.51,2.07-5.26c1.51-3.85,3.03-7.7,4.54-11.56c0.05-0.11,0.09-0.23,0.12-0.35
		c0.28-1.14,1.02-1.89,2.02-2.43c0.89-0.48,1.86-0.69,2.86-0.82c0.63-0.08,1.25-0.07,1.88-0.07c11,0,21.99,0,32.99,0
		c0.13,0,0.27,0,0.4,0.01c0.12,0.01,0.15,0.08,0.1,0.19c-0.02,0.04-0.04,0.08-0.07,0.12c-0.62,0.91-1.28,1.79-2.1,2.53
		c-0.16,0.14-0.33,0.27-0.51,0.38c-0.18,0.11-0.37,0.17-0.57,0.16c-0.09,0-0.18,0-0.27,0c-7.91,0-15.82,0-23.73,0
		c-0.54,0-1.08-0.04-1.61,0.09c-0.4,0.09-0.77,0.24-1.1,0.48c-0.29,0.21-0.51,0.48-0.63,0.81c-0.47,1.24-0.97,2.46-1.53,3.66
		c-0.02,0.05-0.04,0.1-0.06,0.16c-0.03,0.09,0.01,0.16,0.11,0.17c0.12,0.01,0.25,0.01,0.37,0.01c7.73,0,15.46,0,23.19,0
		c0.13,0,0.27,0,0.4,0.01c0.13,0.01,0.18,0.08,0.14,0.2c-0.02,0.05-0.03,0.11-0.06,0.16c-0.45,0.95-0.97,1.85-1.74,2.58
		c-0.23,0.22-0.49,0.4-0.76,0.55c-0.36,0.2-0.75,0.28-1.16,0.28c-7.23-0.01-14.45,0-21.68,0c-0.66,0-0.58-0.06-0.82,0.55
		c-0.93,2.31-1.86,4.62-2.79,6.93c-0.16,0.4-0.16,0.4-0.59,0.4c-1.13,0.01-2.27,0.01-3.4,0.02c-0.14,0-0.29-0.02-0.43,0.05
		C55.74,137.08,53.88,137.08,52.01,137.08z"/>
	<path d="M80.9,137.08c0.06-0.13,0.18-0.2,0.28-0.28c4.15-3.2,8.29-6.4,12.44-9.6c2.66-2.06,5.32-4.11,7.99-6.17
		c1.44-1.11,2.88-2.22,4.31-3.34c0.3-0.24,0.62-0.43,0.98-0.58c0.88-0.37,1.79-0.66,2.74-0.81c0.63-0.09,1.25-0.11,1.87,0.03
		c1.01,0.23,1.73,0.81,2.15,1.76c0.34,0.77,0.65,1.55,0.94,2.34c0.85,2.27,1.64,4.56,2.4,6.86c0.83,2.5,1.65,5.01,2.47,7.51
		c0.08,0.23,0.14,0.47,0.19,0.71c0.06,0.28,0.05,0.56-0.05,0.83c-0.09,0.26-0.25,0.47-0.51,0.6c-0.08,0.04-0.15,0.09-0.23,0.14
		c-6.49,0-12.97,0-19.46,0c-0.02-0.11-0.03-0.22-0.05-0.33c-0.2-0.99-0.41-1.98-0.62-2.96c-0.08-0.39-0.07-0.39,0.31-0.43
		c0.58-0.06,1.17-0.04,1.75-0.07c1.28-0.06,2.55-0.12,3.83-0.18c0.87-0.04,1.75-0.06,2.62-0.09c0.11,0,0.22-0.02,0.33-0.03
		c0.3-0.05,0.33-0.07,0.24-0.37c-0.7-2.4-1.39-4.8-2.09-7.2c-0.15-0.53-0.55-0.74-1.09-0.59c-0.3,0.08-0.56,0.23-0.81,0.41
		c-0.92,0.68-1.85,1.35-2.77,2.03c-3.09,2.29-6.18,4.58-9.27,6.87c-1.32,0.98-2.65,1.97-3.97,2.95
		C85.52,137.08,83.21,137.08,80.9,137.08z"/>
	<path d="M0.84,132.97c0.05-0.09,0.09-0.18,0.1-0.28c0.1-0.8,0.39-1.54,0.66-2.29c1.47-4.02,3.09-7.97,4.75-11.9
		c0.22-0.52,0.45-1.03,0.65-1.55c0.1-0.26,0.25-0.35,0.53-0.35c3.11,0.01,6.21,0,9.32,0.01c0.4,0,0.41,0.02,0.25,0.39
		c-0.83,1.94-1.66,3.88-2.49,5.81c-1.01,2.35-2.01,4.7-3.02,7.05c-0.18,0.43-0.28,0.87-0.26,1.34c0.03,0.66,0.41,1.1,1.08,1.21
		c0.29,0.05,0.58,0.07,0.87,0.07c4.08,0,8.17-0.02,12.25,0.03c4.54,0.06,9.09,0.03,13.63,0.06c0.13,0,0.27,0.01,0.4,0.03
		c0.11,0.01,0.15,0.08,0.11,0.19c-0.01,0.04-0.03,0.08-0.05,0.13c-0.52,1.13-1.07,2.25-1.85,3.23c-0.3,0.37-0.64,0.68-1.06,0.92
		c-10.82,0-21.64,0-32.45,0c-0.44-0.15-0.9-0.26-1.32-0.47c-1.05-0.52-1.77-1.3-2-2.48c-0.02-0.12-0.05-0.24-0.11-0.35
		C0.84,133.51,0.84,133.24,0.84,132.97z"/>
	<path d="M40.23,137.08c0.27-0.82,0.61-1.62,0.92-2.42c2.02-5.21,4.04-10.42,6.06-15.62c0.28-0.73,0.57-1.46,0.85-2.2
		c0.14-0.37,0.15-0.37,0.53-0.37c2.97,0,5.95,0,8.92,0c0.41,0,0.42,0.02,0.27,0.39c-2.09,5.23-4.19,10.46-6.28,15.69
		c-0.56,1.4-1.12,2.79-1.68,4.18c-0.05,0.11-0.1,0.23-0.11,0.35C46.56,137.08,43.39,137.08,40.23,137.08z"/>
</g>
</svg>
