<svg xmlns="http://www.w3.org/2000/svg" xml:space="preserve" version="1.0" viewBox="0 0 115.5 90.06"><style>.st3{fill:#fff}.st5{fill:#565f64}.st7{fill:#a4aaae;fill-opacity:.6}</style><g id="mb-stern_x5F_10"><linearGradient id="outer_00000181048056269285698270000013371209522491488411_" x1="33.749" x2="81.753" y1="66.405" y2="26.201" gradientTransform="matrix(1 0 0 -1 0 91.33)" gradientUnits="userSpaceOnUse"><stop offset="0" style="stop-color:#fff"/><stop offset=".1" style="stop-color:#e7e8e6"/><stop offset=".1" style="stop-color:#cdd0d0"/><stop offset=".2" style="stop-color:#b5bbbd"/><stop offset=".2" style="stop-color:#a5acaf"/><stop offset=".3" style="stop-color:#9ba3a7"/><stop offset=".3" style="stop-color:#98a0a4"/><stop offset=".4" style="stop-color:#828a8f"/><stop offset=".5" style="stop-color:#667075"/><stop offset=".6" style="stop-color:#535c63"/><stop offset=".7" style="stop-color:#475158"/><stop offset=".8" style="stop-color:#434d54"/><stop offset="1" style="stop-color:#475157"/></linearGradient><path id="outer_24_" d="M89.05 45.03c0 17.3-14 31.3-31.3 31.3s-31.3-14-31.3-31.3 14-31.3 31.3-31.3 31.3 14 31.3 31.3m-31.3-29.4c-16.3 0-29.4 13.1-29.4 29.4s13.2 29.4 29.4 29.4c16.3 0 29.4-13.2 29.4-29.4 0-16.3-13.1-29.4-29.4-29.4" style="fill:url(#outer_00000181048056269285698270000013371209522491488411_)"/><linearGradient id="SVGID_1_" x1="35.222" x2="80.222" y1="65.244" y2="27.444" gradientTransform="matrix(1 0 0 -1 0 91.33)" gradientUnits="userSpaceOnUse"><stop offset="0" style="stop-color:#0b1f2a"/><stop offset=".2" style="stop-color:#333f47"/><stop offset=".5" style="stop-color:#777f84"/><stop offset=".5" style="stop-color:#81898d"/><stop offset=".7" style="stop-color:#b3b8b8"/><stop offset=".8" style="stop-color:#d2d5d3"/><stop offset=".8" style="stop-color:#dee0dd"/><stop offset="1" style="stop-color:#fbfbfb"/></linearGradient><path d="M57.75 15.63c-16.3 0-29.4 13.1-29.4 29.4s13.2 29.4 29.4 29.4c16.3 0 29.4-13.2 29.4-29.4 0-16.3-13.1-29.4-29.4-29.4m0 56.9c-15.2 0-27.5-12.3-27.5-27.5s12.3-27.5 27.5-27.5 27.5 12.3 27.5 27.5-12.3 27.5-27.5 27.5" style="fill:url(#SVGID_1_)"/><linearGradient id="SVGID_00000054956469039998785460000008262661850678858395_" x1="1624.487" x2="1646.387" y1="-164.64" y2="-224.84" gradientTransform="matrix(-1 0 0 1 1693.174 239.732)" gradientUnits="userSpaceOnUse"><stop offset="0" style="stop-color:#e1e3e1"/><stop offset=".1" style="stop-color:#c1c5c4"/><stop offset=".3" style="stop-color:#9ba1a2"/><stop offset=".5" style="stop-color:#7d8487"/><stop offset=".7" style="stop-color:#687074;stop-opacity:0"/><stop offset=".8" style="stop-color:#5b6469;stop-opacity:0"/><stop offset="1" style="stop-color:#576065;stop-opacity:0"/></linearGradient><path d="M57.75 76.33c17.3 0 31.3-14 31.3-31.3s-14-31.3-31.3-31.3-31.3 14-31.3 31.3 14 31.3 31.3 31.3m0-63.3c17.6 0 32 14.4 32 32s-14.4 32-32 32-32-14.4-32-32 14.4-32 32-32" style="opacity:.4;fill:url(#SVGID_00000054956469039998785460000008262661850678858395_)"/><path d="M27.95 45.13c0-16.4 13.3-29.9 29.8-29.9s29.8 13.4 29.8 29.9c0 16.4-13.3 29.7-29.8 29.7s-29.8-13.3-29.8-29.7m9.3-20.6c-5.3 5.3-8.6 12.6-8.6 20.6s3.3 15.3 8.5 20.5c5.3 5.2 12.6 8.5 20.6 8.5s15.3-3.2 20.5-8.5c5.3-5.2 8.5-12.5 8.5-20.5s-3.3-15.3-8.5-20.6-12.5-8.6-20.5-8.6-15.3 3.3-20.5 8.6" class="st3"/><linearGradient id="SVGID_00000144319012543111568750000000654634484307067305_" x1="43.952" x2="71.55" y1="70.202" y2="22.404" gradientTransform="matrix(1 0 0 -1 0 91.33)" gradientUnits="userSpaceOnUse"><stop offset="0" style="stop-color:#e1e3e1"/><stop offset=".1" style="stop-color:#c1c5c4"/><stop offset=".3" style="stop-color:#9ba1a2"/><stop offset=".5" style="stop-color:#7d8487"/><stop offset=".7" style="stop-color:#687074;stop-opacity:0"/><stop offset=".8" style="stop-color:#5b6469;stop-opacity:0"/><stop offset="1" style="stop-color:#576065;stop-opacity:0"/></linearGradient><path d="M57.75 72.63c-7.4 0-14.3-2.9-19.5-8.1s-8.1-12.1-8.1-19.5 2.9-14.3 8.1-19.5 12.1-8.1 19.5-8.1 14.3 2.9 19.5 8.1 8.1 12.1 8.1 19.5-2.9 14.3-8.1 19.5-12.1 8.1-19.5 8.1m0-.8c7.1 0 13.9-2.8 18.9-7.8 5.1-5.1 7.8-11.8 7.8-18.9s-2.8-13.9-7.8-18.9c-5.1-5.1-11.8-7.8-18.9-7.8s-13.9 2.8-18.9 7.8c-5.1 4.9-7.9 11.7-7.9 18.8s2.8 13.9 7.8 18.9c5.1 5.1 11.9 7.9 19 7.9" style="opacity:.4;fill:url(#SVGID_00000144319012543111568750000000654634484307067305_)"/><path d="M82.05 58.03c-.5-.4-19.8-15.7-19.8-15.7l-4.5-25.7c-.3.1-.7.4-.9.8l-3.2 25-19.9 15.3s-.4.5-.6.8c-.1.2-.1.5-.1.8l24.6-10.1 24.6 10.1c.2-.5 0-1-.2-1.3" class="st3"/><path d="m57.95 45.83-.2 4.6 22.6 9.1c.8.4 1.4.2 2-.2l-24.1-13.6c-.1-.1-.3 0-.3.1" class="st5"/><linearGradient id="SVGID_00000147941255576401559720000005396942352465598359_" x1="70.239" x2="68.539" y1="38.91" y2="36.11" gradientTransform="matrix(1 0 0 -1 0 91.33)" gradientUnits="userSpaceOnUse"><stop offset="0" style="stop-color:#27343c"/><stop offset="1" style="stop-color:#00111e;stop-opacity:0"/></linearGradient><path d="M57.95 45.83s1.3 2.3 2.8 3.9c2.1 2.3 4.9 3.9 4.9 3.9l14.7 5.9c.8.4 1.4.2 2-.2l-24.1-13.6c-.1-.1-.3 0-.3.1" style="fill:url(#SVGID_00000147941255576401559720000005396942352465598359_)"/><path d="M82.25 58.43c0-.1-.1-.2-.2-.4l-20.6-15.1-2.8 1.8s.2.1.3 0c.3-.1.9-.2 1.5 0 .5.2 21.8 13.8 21.8 13.8z" class="st7"/><path d="m81.55 57.53-19.2-15.2-.9.6 20.6 15.2c-.1-.2-.3-.4-.5-.6" style="fill:#333e46"/><path d="m58.25 44.33-.1.1s0 .2.2.1c.1-.1 3-1.6 4-2.2l-3.5-24c-.1-.9-.5-1.3-1.2-1.6l.4 27.8z" class="st5"/><path d="M56.55 18.33v1.3l-2.2 22.1c0 .3.1.6.4.8l1.3 1 .9-24.4.1-1.9c-.3.2-.4.6-.5 1.1M55.35 43.93l-1.2-1-20.3 14.7s-.6.4-.7.8l.7-.4 21.3-13.4c.4-.2.5-.4.2-.7" class="st7"/><path d="M57.45 45.83c0-.1-.1-.2-.2-.1l-24.2 13.7c.6.4 1.2.5 2 .2l22.6-9.1z" class="st5"/><linearGradient id="SVGID_00000114039820854940038170000016088767688172292230_" x1="65.331" x2="62.531" y1="49.191" y2="53.691" gradientTransform="matrix(1 0 0 -1 0 91.33)" gradientUnits="userSpaceOnUse"><stop offset=".1" style="stop-color:#02131f"/><stop offset=".9" style="stop-color:#02131f;stop-opacity:0"/></linearGradient><path d="m58.15 44.43.1-.1zs0 .1.1.1h.1c.1-.1 3-1.6 4-2.2l-.4-2.9-3.1-21.1q0-.6-.3-.9s1.5 20.2 1.5 22.4c0 2.9-1.9 4.6-1.9 4.6" style="fill:url(#SVGID_00000114039820854940038170000016088767688172292230_)"/><linearGradient id="SVGID_00000109018900284044515590000010621018629840580500_" x1="57.733" x2="53.533" y1="41.967" y2="40.767" gradientTransform="matrix(1 0 0 -1 0 91.33)" gradientUnits="userSpaceOnUse"><stop offset=".2" style="stop-color:#02131f"/><stop offset=".9" style="stop-color:#02131f;stop-opacity:0"/></linearGradient><path d="M57.45 45.83c0-.1-.1-.2-.2-.1l-24.2 13.7c.6.4 1.2.5 2 .2l22.6-9.1z" style="fill:url(#SVGID_00000109018900284044515590000010621018629840580500_);fill-opacity:.8"/><linearGradient id="SVGID_00000015316552384336908150000003269264049862721681_" x1="46.542" x2="45.942" y1="36.4" y2="37.9" gradientTransform="matrix(1 0 0 -1 0 91.33)" gradientUnits="userSpaceOnUse"><stop offset="0" style="stop-color:#02131f"/><stop offset=".1" style="stop-color:#02131f"/><stop offset="1" style="stop-color:#02131f;stop-opacity:0"/></linearGradient><path d="m35.05 59.53 22.6-9.1-.2-4.4c-.4 1.2-1.1 2.5-3 3.5-1.4.8-14.8 7.4-19.6 9.7-.3.2-.7.3-.9.4.4.2.7.1 1.1-.1" style="opacity:.8;fill:url(#SVGID_00000015316552384336908150000003269264049862721681_)"/><linearGradient id="SVGID_00000041294493301806291600000008073612697057333122_" x1="61.353" x2="57.953" y1="61.089" y2="60.689" gradientTransform="matrix(1 0 0 -1 0 91.33)" gradientUnits="userSpaceOnUse"><stop offset=".3" style="stop-color:#02131f"/><stop offset=".3" style="stop-color:#02131f"/><stop offset=".8" style="stop-color:#02131f;stop-opacity:0"/></linearGradient><path d="m58.25 44.33-.1.1s0 .2.2.1c.1-.1 3-1.6 4-2.2l-3.5-24c-.1-.9-.5-1.3-1.2-1.6l.4 27.8z" style="fill:url(#SVGID_00000041294493301806291600000008073612697057333122_)"/><linearGradient id="SVGID_00000078029599597986192050000013887323178449578430_" x1="61.458" x2="59.158" y1="61.146" y2="60.846" gradientTransform="matrix(1 0 0 -1 0 91.33)" gradientUnits="userSpaceOnUse"><stop offset=".4" style="stop-color:#27343c"/><stop offset="1" style="stop-color:#3b474e;stop-opacity:0"/></linearGradient><path d="m58.25 44.33-.1.1s0 .2.2.1c.1-.1 3-1.6 4-2.2l-3.5-24c-.1-.9-.5-1.3-1.2-1.6l.4 27.8z" style="fill:url(#SVGID_00000078029599597986192050000013887323178449578430_)"/><linearGradient id="SVGID_00000155863446512771330100000002567984250512259770_" x1="25.39" x2="53.29" y1="45.472" y2="29.372" gradientTransform="matrix(1 0 0 -1 0 91.33)" gradientUnits="userSpaceOnUse"><stop offset="0" style="stop-color:#24303a;stop-opacity:0"/><stop offset="0" style="stop-color:#25323b;stop-opacity:0"/><stop offset=".1" style="stop-color:#27343c"/></linearGradient><path d="M30.85 57.43c-.7-1.6-4.7-9.4-.3-24.4h-1.7c-.9 3-1.6 4.8-2 7.5 0 0-.2 1-.3 2.1s-.1 1.7-.1 2.4c0 6 1.5 9.5 1.5 9.5 1.6 5 4.4 9.5 8.2 12.9 3.3 2.9 8.4 5.1 12.6 5.9-.7-.1-12.7-5.2-17.9-15.9" style="fill:url(#SVGID_00000155863446512771330100000002567984250512259770_)"/><linearGradient id="SVGID_00000058585887611520584550000014623006770830736309_" x1="57.701" x2="57.701" y1="40.903" y2="45.703" gradientTransform="matrix(1 0 0 -1 0 91.33)" gradientUnits="userSpaceOnUse"><stop offset=".3" style="stop-color:#a5abaf"/><stop offset="1" style="stop-color:#a5abaf;stop-opacity:0"/></linearGradient><path d="M58.15 45.63h-.9c.1 0 .2 0 .2.1l.2 4.6h.1l.2-4.6c0-.1.1-.2.2-.1" style="fill:url(#SVGID_00000058585887611520584550000014623006770830736309_)"/><linearGradient id="SVGID_00000130610245670485202820000004882447194731045009_" x1="73.401" x2="73.401" y1="76.003" y2="15.003" gradientTransform="matrix(1 0 0 -1 0 91.33)" gradientUnits="userSpaceOnUse"><stop offset="0" style="stop-color:#dee0dd"/><stop offset="0" style="stop-color:#c5c9c7"/><stop offset="0" style="stop-color:#9ea4a5"/><stop offset="0" style="stop-color:#82898c"/><stop offset="0" style="stop-color:#71797d"/><stop offset="0" style="stop-color:#6b7378"/><stop offset=".2" style="stop-color:#333f47"/><stop offset=".5" style="stop-color:#27343c"/><stop offset=".8" style="stop-color:#333f47"/><stop offset="1" style="stop-color:#434d54"/></linearGradient><path d="M67.75 15.33c10.5 4 20.4 15 20.4 28.9 0 16.8-13.4 30.5-30.4 30.5v1.6c17 0 31.3-14 31.3-31.3 0-13.8-8.8-25.4-21.3-29.7" style="fill:url(#SVGID_00000130610245670485202820000004882447194731045009_)"/><linearGradient id="SVGID_00000031924080047543076580000006972328229980851596_" x1="57.751" x2="58.051" y1="77.603" y2="77.603" gradientTransform="matrix(1 0 0 -1 0 91.33)" gradientUnits="userSpaceOnUse"><stop offset="0" style="stop-color:#dee0dd"/><stop offset="0" style="stop-color:#c5c9c7"/><stop offset="0" style="stop-color:#9ea4a5"/><stop offset="0" style="stop-color:#82898c"/><stop offset="0" style="stop-color:#71797d"/><stop offset="0" style="stop-color:#6b7378"/><stop offset=".2" style="stop-color:#333f47"/><stop offset=".5" style="stop-color:#27343c"/><stop offset=".8" style="stop-color:#333f47"/><stop offset="1" style="stop-color:#434d54"/></linearGradient><path d="M58.05 13.73h-.3z" style="fill:url(#SVGID_00000031924080047543076580000006972328229980851596_)"/><linearGradient id="SVGID_00000170962946274345474330000010825998896359570616_" x1="83.04" x2="69.54" y1="70.21" y2="50.41" gradientTransform="matrix(1 0 0 -1 0 91.33)" gradientUnits="userSpaceOnUse"><stop offset=".7" style="stop-color:#27343c"/><stop offset=".7" style="stop-color:#2b373f"/><stop offset=".7" style="stop-color:#36424a"/><stop offset=".7" style="stop-color:#49545b"/><stop offset=".8" style="stop-color:#646d73;stop-opacity:0"/><stop offset=".8" style="stop-color:#868d92;stop-opacity:0"/><stop offset=".8" style="stop-color:#b0b5b8;stop-opacity:0"/><stop offset=".8" style="stop-color:#e1e3e4;stop-opacity:0"/><stop offset=".8" style="stop-color:#fff;stop-opacity:0"/></linearGradient><path d="M84.55 33.23c-7-16.1-22.8-17-23.7-17.1h-.1c12.1 2.2 19.8 10.1 22.5 18.4v.1c1.2 3.2 1.8 6.6 1.9 10.3.1 3.5-.7 7.4-2.2 11-.1.5-.2 1.1-.3 1.1h1.6c4.8-9 2.7-18.1.3-23.8" style="fill:url(#SVGID_00000170962946274345474330000010825998896359570616_)"/><path d="M27.95 45.13c0-16.4 13.3-29.9 29.8-29.9s29.8 13.4 29.8 29.9c0 16.4-13.3 29.7-29.8 29.7s-29.8-13.3-29.8-29.7m9.3-20.6c-5.3 5.3-8.6 12.6-8.6 20.6s3.3 15.3 8.5 20.5c5.3 5.2 12.6 8.5 20.6 8.5s15.3-3.2 20.5-8.5c5.3-5.2 8.5-12.5 8.5-20.5s-3.3-15.3-8.5-20.6-12.5-8.6-20.5-8.6-15.3 3.3-20.5 8.6" style="fill:#fbfbfb"/><path d="m33.65 57.83 20.4-14.7c1.1.6 2.9 1.4 3.1 1.4.2.1.2-.1.2-.1l-2.5-2.1c-.3-.2-.4-.5-.4-.8l2.4-24.1c-.1.1-.1.3-.2.4-.1.2-.1.3-.1.5l-3.5 24.1-19.2 15.1c-.1.1-.2.2-.2.3" style="fill:#333f47"/></g></svg>