<?xml version="1.0" encoding="UTF-8"?><svg id="uuid-44d56224-5490-4b40-9307-5e441ea39782" xmlns="http://www.w3.org/2000/svg" viewBox="0 0 298 42.17">
<title>Nissan wordmark logo - Brandlogos.net</title><g id="uuid-95f9fad3-2aad-47fa-9d1b-817fdfb50023"><path id="uuid-8f608799-7bd9-4a84-92c6-d462797cb743" d="M206.15,24.9c3.14-7.46,6.2-14.69,6.29-14.88.18-.41.5-.59.99-.65.22-.02.74-.03,1.26-.03.49,0,.99.01,1.17.03.44.06.83.26,1.01.73.77,2.09,3.38,8.39,6.06,14.8h-16.77ZM227.23,6.65c-3.08-7.12-1.92-6.33-8.72-6.57-.62-.03-1.99-.05-4.02-.06-2.03,0-2.57.02-4.12.05-6.4.11-5.4-.33-7.59,4.28,0,0-11,25.1-15.78,35.53l-.22.44c-.9,1.76-.24,1.83,1.18,1.83h9.97c.63,0,1.05-.4,1.22-.75,0,0,1.37-3.27,3.26-7.68h24.21c1.81,4.3,3.16,7.5,3.23,7.66.21.49.67.79,1.22.79l10.28-.02c1.53,0,1.85.2,1.27-1.18-1.83-4.34-13.7-30.34-15.41-34.32M72.37.06h-10.09c-.8,0-1.02.39-1.02,1.08v39.74c0,1.09.25,1.28,1.36,1.28h9.56c1.07,0,1.3-.25,1.3-1.28V1.16c0-.78-.24-1.1-1.1-1.1M49.77.05h-8.26c-1.1,0-1.3.26-1.3,1.29v31.46S23.6,6.95,21.45,3.61C18.96-.25,18.07,0,10.85,0S1.31.05,1.31.05C.2.06,0,.31,0,1.34l.02,39.54c0,1.07.24,1.29,1.31,1.29h8.28c1.12,0,1.33-.26,1.33-1.28V9.86s13.63,21.43,18.23,28.63c2.33,3.64,2.74,3.67,9.43,3.67h11.18c1.09,0,1.32-.21,1.32-1.29V1.34c0-1.04-.2-1.29-1.32-1.29M296.67.05h-8.25c-1.1,0-1.3.26-1.3,1.29v31.46s-16.59-25.86-18.75-29.2C265.87-.25,264.99,0,257.75,0s-9.54.05-9.54.05c-1.1,0-1.3.26-1.3,1.28l.02,39.54c0,1.07.24,1.29,1.31,1.29h8.28c1.12,0,1.32-.26,1.32-1.28V9.86s13.64,21.43,18.24,28.63c2.33,3.64,2.73,3.67,9.44,3.67h11.16c1.09,0,1.33-.21,1.33-1.29V1.34c0-1.04-.2-1.29-1.33-1.29M115.74,16.2c-3.98-.39-14.86-1.42-18.42-1.74-1.3-.13-1.67-.89-1.77-1.74-.05-.38-.05-.69-.05-.95,0-.39.02-.59.05-.88.12-1.19.73-1.68,2.01-1.68.82,0,29.48,0,29.48,0,1.07,0,1.34-.2,1.34-1.3V1.22c0-1.01-.31-1.19-1.34-1.19h-29.94c-7.8,0-12.19,2.85-13.39,8.73-.27,1.32-.32,2.93-.32,4.07,0,1.38.09,2.8.24,3.89.46,3.37,2.51,7.34,11.49,8.22,7.13.7,17.39,1.57,20.84,1.87,1.56.13,1.84,1.31,1.94,1.97.04.26.06.64.06,1.14,0,.45,0,.92-.06,1.56-.08.93-.51,1.37-1.73,1.37h-31.27c-1.1,0-1.32.23-1.32,1.3v6.67c0,1.08.26,1.3,1.31,1.3h30.87c7.65,0,12.65-1.29,14-7.93.29-1.4.34-3.24.34-4.52,0-1.98-.14-3.76-.27-4.43-1.38-6.97-6.63-8.31-14.08-9.04M169.91,16.2c-3.98-.39-14.85-1.42-18.42-1.74-1.3-.13-1.67-.89-1.78-1.74-.04-.38-.04-.69-.04-.95,0-.39.02-.59.04-.88.13-1.19.73-1.68,2.03-1.68.8,0,29.47,0,29.47,0,1.06,0,1.32-.2,1.32-1.3V1.22c0-1.01-.3-1.19-1.32-1.19h-29.94c-7.8,0-12.2,2.85-13.39,8.73-.27,1.32-.32,2.93-.32,4.07,0,1.38.09,2.8.24,3.89.47,3.37,2.51,7.34,11.48,8.22,7.13.7,17.41,1.57,20.85,1.87,1.55.13,1.84,1.31,1.94,1.97.04.26.06.64.06,1.14,0,.45,0,.92-.06,1.56-.08.93-.51,1.37-1.72,1.37h-31.27c-1.1,0-1.32.23-1.32,1.3v6.67c0,1.08.27,1.3,1.32,1.3h30.87c7.65,0,12.65-1.29,14-7.93.28-1.4.34-3.24.34-4.52,0-1.98-.14-3.76-.28-4.43-1.38-6.97-6.62-8.31-14.07-9.04" style="fill:#c90c41;"/></g></svg>